<?xml version="1.0" standalone="no"?>
<!DOCTYPE svg PUBLIC "-//W3C//DTD SVG 20010904//EN"
 "http://www.w3.org/TR/2001/REC-SVG-20010904/DTD/svg10.dtd">
<svg version="1.0" xmlns="http://www.w3.org/2000/svg"
 width="1182.000000pt" height="1005.000000pt" viewBox="0 0 1182.000000 1005.000000"
 preserveAspectRatio="xMidYMid meet">

<g transform="translate(0.000000,1005.000000) scale(0.100000,-0.100000)"
fill="#000000" stroke="none">
<path d="M0 5025 l0 -5025 5910 0 5910 0 0 5025 0 5025 -5910 0 -5910 0 0
-5025z m5171 3351 c276 -101 509 -191 518 -200 14 -15 16 -95 21 -839 l5 -822
22 -42 c44 -82 127 -118 228 -99 46 9 103 60 129 116 21 44 21 58 24 856 l3
811 22 20 c27 24 1001 383 1040 383 15 0 36 -9 47 -20 19 -19 20 -31 18 -123
l-3 -102 -421 -76 c-456 -82 -466 -85 -498 -153 -14 -30 -16 -112 -16 -773 0
-801 -1 -805 -56 -916 -61 -122 -145 -187 -267 -207 -212 -36 -378 66 -449
279 -22 66 -23 71 -28 836 -6 849 -2 799 -66 842 -17 11 -177 44 -448 93
l-421 76 0 101 c0 114 14 143 66 143 16 0 254 -83 530 -184z m-263 -271 c222
-41 413 -80 423 -86 11 -5 24 -21 29 -35 6 -15 10 -309 10 -733 0 -672 1 -712
20 -785 75 -295 306 -459 597 -425 168 20 321 132 397 291 72 152 69 112 75
930 5 662 8 739 22 754 12 11 140 37 448 90 471 81 474 81 495 23 7 -21 -14
-158 -87 -566 -54 -297 -97 -568 -97 -601 l0 -62 -54 0 c-47 0 -57 4 -75 26
-21 26 -21 37 -21 453 0 487 2 475 -83 521 l-46 25 -108 -19 c-126 -21 -165
-37 -196 -80 l-22 -31 -5 -645 c-6 -626 -7 -647 -28 -725 -64 -230 -196 -402
-377 -490 -108 -52 -183 -69 -315 -69 -205 1 -341 55 -481 194 -98 97 -143
170 -188 305 -45 135 -51 236 -51 859 0 538 -1 562 -20 593 -29 48 -57 62
-175 84 -121 24 -160 20 -206 -18 -59 -50 -59 -52 -59 -518 l0 -426 -25 -25
c-21 -21 -33 -25 -73 -22 l-47 3 3 41 c2 22 -40 291 -92 596 -53 305 -96 565
-96 578 0 35 38 70 74 70 17 0 213 -34 434 -75z m46 -346 c103 -21 96 27 96
-638 1 -444 4 -594 15 -653 53 -302 226 -545 470 -663 140 -68 195 -80 375
-80 175 0 235 12 359 71 250 118 420 343 482 639 17 80 20 156 26 682 l6 593
24 22 c19 18 36 23 81 23 l57 0 5 -460 c5 -440 6 -461 25 -487 36 -47 71 -61
172 -66 l94 -5 -3 -51 -3 -51 -95 -5 c-153 -9 -186 -39 -214 -196 -41 -234
-147 -444 -302 -598 -127 -127 -253 -200 -444 -255 -56 -16 -112 -36 -125 -45
-13 -8 -35 -40 -50 -71 l-26 -56 -72 3 -71 3 -10 35 c-17 60 -71 103 -155 123
-183 44 -327 123 -462 257 -172 169 -271 363 -314 609 -26 153 -59 183 -210
191 l-100 5 0 50 0 50 92 6 c112 8 149 26 181 89 22 44 22 47 22 492 0 246 4
448 8 448 5 0 34 -5 66 -11z m-237 -1301 c12 -14 28 -56 38 -103 92 -430 381
-761 784 -899 67 -23 86 -40 54 -49 -10 -3 -267 -54 -571 -113 -594 -116 -594
-115 -620 -62 -11 24 -1 94 83 580 53 304 96 579 97 611 l0 57 57 0 c47 0 61
-4 78 -22z m2520 -22 c-5 -32 20 -194 88 -591 52 -301 95 -561 95 -578 0 -38
-35 -77 -68 -77 -22 0 -1083 204 -1124 216 -37 11 -16 31 55 53 162 52 347
169 464 295 155 165 250 345 308 581 32 133 43 145 127 145 l61 0 -6 -44z
m-2147 -1792 c116 -102 210 -188 210 -190 0 -16 -145 -174 -156 -170 -7 3 -69
48 -138 100 -68 53 -127 96 -131 96 -4 0 -65 -45 -136 -100 -71 -55 -133 -100
-138 -100 -10 0 -150 160 -151 173 -1 8 416 377 426 377 2 0 99 -84 214 -186z
m3468 -505 c163 -41 314 -160 381 -303 58 -120 73 -201 75 -391 l1 -170 -465
-5 -465 -5 3 -29 c11 -105 121 -202 263 -232 121 -26 342 -7 480 40 24 8 45
13 48 11 2 -3 16 -77 31 -166 l27 -161 -34 -14 c-164 -69 -547 -95 -723 -49
-141 37 -279 122 -366 225 -45 55 -106 182 -128 270 -26 102 -31 287 -12 399
78 443 452 689 884 580z m1482 5 c102 -18 199 -44 206 -55 4 -7 -11 -81 -61
-295 l-5 -22 -82 25 c-114 34 -317 44 -383 18 -30 -11 -51 -27 -60 -45 -44
-85 11 -133 255 -229 276 -108 376 -206 400 -393 34 -270 -108 -441 -411 -494
-117 -20 -398 -14 -499 11 -61 15 -191 54 -198 60 -3 3 54 293 63 322 3 9 23
6 74 -12 129 -44 219 -59 351 -59 141 -1 182 10 205 55 43 81 -16 135 -243
223 -220 85 -321 159 -375 275 -42 89 -50 226 -19 327 77 248 375 358 782 288z
m-6095 -8 c205 -56 321 -176 377 -389 20 -77 21 -111 25 -574 l5 -493 -205 0
-205 0 -5 458 c-3 403 -6 464 -21 514 -43 136 -129 174 -345 152 l-61 -7 0
-558 0 -559 -205 0 -205 0 0 700 0 699 38 10 c67 18 255 51 342 60 126 14 393
6 465 -13z m2218 9 c74 -16 161 -52 217 -90 l36 -25 87 44 c125 63 206 81 357
81 290 -1 451 -116 523 -373 20 -73 21 -103 25 -589 l3 -513 -205 0 -206 0 0
438 c0 466 -6 536 -50 607 -12 19 -38 44 -58 57 -51 32 -163 31 -245 -1 -58
-23 -59 -24 -52 -55 4 -17 10 -259 12 -538 l4 -508 -205 0 -205 0 -4 473 c-3
495 -4 511 -50 578 -44 66 -116 87 -251 74 l-76 -7 0 -559 0 -559 -205 0 -205
0 0 699 0 699 88 21 c80 18 247 45 332 54 93 10 271 5 333 -8z m-4243 -407 c0
-508 12 -611 78 -682 51 -54 136 -72 272 -59 l75 8 5 560 5 560 203 3 202 2 0
-703 0 -704 -97 -21 c-144 -32 -203 -40 -358 -53 -387 -30 -608 55 -715 275
-69 142 -72 171 -77 704 -3 260 -2 480 1 488 4 11 40 14 206 14 l200 0 0 -392z
m3158 -335 l2 -723 -210 0 -210 0 0 718 c0 395 3 722 7 726 4 3 97 5 207 4
l201 -3 3 -722z m5111 -1023 c-69 -77 -74 -80 -115 -80 l-44 0 52 80 53 80 63
0 64 0 -73 -80z m-2560 -141 c73 -11 152 -42 175 -68 15 -16 15 -22 -4 -64
l-21 -47 -52 30 c-111 62 -235 64 -294 5 -65 -65 -34 -137 73 -164 212 -54
281 -88 313 -154 50 -104 3 -216 -111 -268 -46 -21 -68 -24 -168 -24 -122 0
-178 13 -252 58 l-37 22 20 45 c11 24 21 46 23 48 2 1 32 -12 67 -30 55 -28
77 -33 155 -36 110 -5 158 12 180 64 29 69 -8 102 -154 140 -217 55 -272 100
-272 223 0 63 13 98 53 139 41 43 78 63 147 78 70 16 82 16 159 3z m-5987
-266 c3 -249 4 -270 24 -303 34 -58 76 -80 154 -80 82 0 124 24 158 90 21 42
22 55 22 302 l0 258 65 0 65 0 0 -263 c0 -317 -6 -347 -80 -419 -59 -57 -121
-78 -230 -78 -110 0 -172 21 -230 80 -75 74 -80 102 -80 417 l0 263 64 0 65 0
3 -267z m1244 8 l199 -259 3 259 2 259 65 0 65 0 0 -375 0 -375 -52 0 -53 0
-195 255 c-107 140 -198 255 -202 255 -5 0 -8 -115 -8 -255 l0 -255 -60 0 -60
0 0 375 0 375 49 0 48 0 199 -259z m932 -118 l2 -373 -70 0 -70 0 0 375 0 376
68 -3 67 -3 3 -372z m508 365 c4 -7 60 -133 124 -281 64 -148 120 -268 126
-267 5 0 61 121 124 268 64 147 119 273 123 280 7 11 137 19 137 8 0 -2 -74
-169 -164 -372 l-164 -369 -58 -3 -59 -2 -163 367 c-89 203 -162 371 -162 376
0 12 128 8 136 -5z m1504 -43 l0 -55 -185 0 -185 0 0 -105 0 -105 175 0 175 0
0 -55 0 -55 -175 0 -176 0 3 -107 3 -108 183 -3 182 -2 0 -50 0 -50 -250 0
-250 0 0 375 0 375 250 0 250 0 0 -55z m892 22 c38 -18 64 -40 79 -64 65 -104
31 -254 -67 -300 -39 -19 -43 -29 -15 -38 32 -10 61 -69 137 -277 l13 -38 -74
0 c-43 0 -75 4 -75 10 0 5 -23 69 -51 141 -60 154 -66 159 -199 159 l-80 0 0
-155 0 -155 -70 0 -70 0 0 368 c0 203 3 372 8 376 4 4 97 6 207 4 195 -3 201
-4 257 -31z m1678 -342 l0 -375 -70 0 -70 0 0 375 0 375 70 0 70 0 0 -375z
m1015 315 l0 -55 -122 -3 -123 -3 0 -314 0 -315 -70 0 -70 0 0 315 0 315 -120
0 -120 0 0 60 0 60 313 -2 312 -3 0 -55z m893 3 l3 -53 -185 0 -186 0 0 -105
0 -105 176 0 175 0 -3 -52 -3 -53 -172 -3 -173 -2 0 -110 0 -110 185 0 185 0
0 -50 0 -50 -250 0 -250 0 0 375 0 375 248 -2 247 -3 3 -52z"/>
<path d="M8262 3809 c-52 -15 -126 -95 -151 -162 -39 -105 -60 -97 245 -97
l267 0 -6 45 c-14 98 -85 189 -166 214 -45 13 -142 13 -189 0z"/>
<path d="M6390 2020 l0 -110 115 0 c162 0 195 19 195 115 0 36 -5 51 -25 69
-32 30 -64 36 -186 36 l-99 0 0 -110z"/>
</g>
</svg>
