<?xml version="1.0" encoding="UTF-8" standalone="no"?>
<!-- Generator: Adobe Illustrator 13.0.2, SVG Export Plug-In . SVG Version: 6.00 Build 14948)  -->

<svg
   xmlns:dc="http://purl.org/dc/elements/1.1/"
   xmlns:cc="http://creativecommons.org/ns#"
   xmlns:rdf="http://www.w3.org/1999/02/22-rdf-syntax-ns#"
   xmlns:svg="http://www.w3.org/2000/svg"
   xmlns="http://www.w3.org/2000/svg"
   xmlns:sodipodi="http://sodipodi.sourceforge.net/DTD/sodipodi-0.dtd"
   xmlns:inkscape="http://www.inkscape.org/namespaces/inkscape"
   version="1.0"
   id="Calque_1"
   x="0px"
   y="0px"
   width="141.268px"
   height="151.753px"
   viewBox="0 0 141.268 151.753"
   enable-background="new 0 0 141.268 151.753"
   xml:space="preserve"
   inkscape:version="0.47+devel r9322"
   sodipodi:docname="Logo commune d'Igny.svg"><metadata
   id="metadata53"><rdf:RDF><cc:Work
       rdf:about=""><dc:format>image/svg+xml</dc:format><dc:type
         rdf:resource="http://purl.org/dc/dcmitype/StillImage" /><dc:title></dc:title></cc:Work></rdf:RDF></metadata><defs
   id="defs51" /><sodipodi:namedview
   pagecolor="#ffffff"
   bordercolor="#666666"
   borderopacity="1"
   objecttolerance="10"
   gridtolerance="10"
   guidetolerance="10"
   inkscape:pageopacity="0"
   inkscape:pageshadow="2"
   inkscape:window-width="640"
   inkscape:window-height="480"
   id="namedview49"
   showgrid="false"
   inkscape:zoom="1.7067207"
   inkscape:cx="70.634003"
   inkscape:cy="75.876503"
   inkscape:window-x="0"
   inkscape:window-y="0"
   inkscape:window-maximized="0"
   inkscape:current-layer="Calque_1" />
<g
   id="g3">
	<rect
   x="0.003"
   fill="none"
   width="141.264"
   height="151.75"
   id="rect5" />
	<path
   fill="#4E6363"
   d="M11.918,135.63c0-10.165,26.283-18.224,58.524-18.224c32.595,0,57.826,8.059,57.826,18.224   c0,10.162-25.23,10.516-57.473,10.516C38.201,146.146,11.918,145.792,11.918,135.63"
   id="path7" />
	<polygon
   fill="#95104E"
   points="12.269,137.382 127.919,137.382 127.919,146.146 123.744,146.146 118.108,151.753 22.429,151.753    16.474,146.146 12.269,146.146  "
   id="polygon9" />
	<path
   fill="#95104E"
   d="M122.31,18.93v61.329c0,0,0.703,7.358-2.102,13.316c-17.872,36.447-45.557,43.105-45.557,43.105   l-4.208,1.756l-3.505-1.756c0,0-28.386-6.658-45.908-43.105c-2.803-5.958-2.103-13.316-2.103-13.316V18.93H122.31z"
   id="path11" />
	<path
   fill="#F8AE16"
   d="M15.423,7.014C32.246,3.158,50.82,0.003,70.445,0.003c19.975,0,38.551,3.155,55.368,7.011l-1.052,18.224   c-16.47-3.855-34.692-6.313-54.316-6.313c-19.275,0-37.5,2.458-53.974,6.313L15.423,7.014z"
   id="path13" />
	<rect
   x="18.929"
   y="57.128"
   fill="#FFFFFF"
   width="103.385"
   height="19.273"
   id="rect15" />
	<path
   fill="#FFFFFF"
   d="M101.633,37.854v36.796c0,0,0.351,4.206-1.399,7.713c-10.519,22.076-26.987,25.933-26.987,25.933   l-2.802,1.05l-2.103-1.05c0,0-16.822-3.856-27.337-25.933c-1.751-3.507-1.399-7.713-1.399-7.713V37.854H101.633z"
   id="path17" />
	<path
   fill="#FFFFFF"
   d="M18.225,140.885c-2.102,0-4.205,0.703-5.957,1.407v-2.81c1.751-0.697,3.505-1.046,5.957-1.046   c8.762,0,10.865,7.007,17.522,7.007c6.659,0,8.762-7.007,17.523-7.007c8.412,0,10.514,7.007,17.172,7.007   c6.663,0,8.762-7.007,17.523-7.007c8.761,0,10.514,7.007,17.171,7.007c7.013,0,8.761-7.007,17.522-7.007   c2.103,0,3.861,0.349,5.26,1.046v3.159c-1.399-1.054-3.157-1.757-5.26-1.757c-6.658,0-8.761,7.013-17.522,7.013   c-8.761,0-10.509-7.013-17.171-7.013c-6.658,0-8.761,7.013-17.523,7.013c-8.76,0-10.51-7.013-17.172-7.013   c-7.008,0-8.761,7.013-17.523,7.013C26.987,147.897,25.235,140.885,18.225,140.885"
   id="path19" />
	<rect
   x="39.253"
   y="57.128"
   fill="#F8AE16"
   width="62.353"
   height="19.273"
   id="rect21" />
	<path
   fill="#95104E"
   d="M66.589,88.669c0-1.749,1.751-3.151,4.205-3.151c2.452,0,4.205,1.402,4.205,3.151   c0,0.704-2.802,5.607-4.205,5.607C69.041,94.276,66.589,89.373,66.589,88.669"
   id="path23" />
	<path
   fill="#95104E"
   d="M74.65,85.518c0,0-1.053,0.697-2.455,0.697c0.703,0.705,1.052,1.402,1.052,1.402s-2.073-0.349-2.453-1.751   c-0.349,1.402-1.752,2.1-1.752,2.1s-0.351-1.046,0-2.1c-1.05,0.349-2.103,0-2.103,0s1.752-2.104,3.506-1.055c0,0,0-1.05,0.349-1.05   c0,0,0.38-0.349,0.38,0c0,0-0.38,1.05-0.38,1.403C73.247,84.114,74.65,85.518,74.65,85.518"
   id="path25" />
	<path
   fill="#FFFFFF"
   d="M71.174,63.084l4.525,4.21c0,2.803-2.452,5.259-4.905,5.259c-2.802,0-5.255-2.456-5.255-5.259l4.555-4.21   l-0.703-1.046c0-0.357,0.703-1.055,1.403-1.055c0.38,0,1.053,0.697,1.053,1.055L71.174,63.084z"
   id="path27" />
	<path
   fill="#95104E"
   d="M60.98,19.982c0-5.259,4.207-9.817,9.815-9.817c5.255,0,9.46,4.559,9.813,9.817H60.98z"
   id="path29" />
	<path
   fill="#95104E"
   d="M86.915,19.982c0-3.856,3.506-7.015,7.362-7.015c4.201,0,7.707,3.158,7.707,7.363v0.699L86.915,19.982z"
   id="path31" />
	<path
   fill="#95104E"
   d="M54.672,19.982c-0.351-3.856-3.502-7.015-7.708-7.015c-4.208,0-7.358,3.158-7.358,7.363v0.699   L54.672,19.982z"
   id="path33" />
	<path
   fill="#95104E"
   d="M66.939,44.512c0-0.349,0.35-0.7,1.053-0.7c0.699,0,1.05,0.7,1.05,1.403c0,0.349-0.351,1.049-1.05,1.049   c-0.703,0-1.053-0.349-1.403-1.049L66.939,44.512z"
   id="path35" />
	<path
   fill="#95104E"
   d="M65.889,49.768c0-1.403,1.4-2.802,3.153-3.155l4.556,2.109l3.506-1.055l-0.7,2.101   c-0.354,1.755-2.457,3.507-4.91,3.507c0,0.699-0.32,1.403-0.7,1.403c-0.349,0-0.7-0.704-0.7-1.403   C67.639,52.926,65.889,51.522,65.889,49.768"
   id="path37" />
	<path
   fill="#FFFFFF"
   d="M14.72,130.022c1.053-0.349,2.453-0.349,3.887-0.349c8.761,0,10.483,7.007,17.143,7.007   c6.658,0,8.76-7.007,17.522-7.007c8.76,0,10.512,6.658,17.17,7.007c6.659-0.349,8.762-7.007,17.523-7.007   c8.761,0,10.514,7.007,17.172,7.007c7.012,0,8.762-7.007,17.523-7.007c1.755,0,3.155,0,4.557,0.697   c0.7,1.055,1.4,2.104,1.754,3.158c-1.754-0.706-4.556-1.403-6.312-1.403c-6.658,0-8.761,7.008-17.523,7.008   c-8.76,0-10.514-7.008-17.172-7.008c-7.008,0-8.761,7.008-17.523,7.008c-8.76,0-10.512-7.008-17.17-7.008   c-6.659,0-8.762,7.008-17.522,7.008c-8.762,0-10.515-7.008-17.143-7.008c-1.782,0-4.587,0.349-6.338,1.403   c0,0,0.703-1.403,1.052-2.104C14.02,131.077,14.72,130.022,14.72,130.022"
   id="path39" />
	<path
   fill="none"
   stroke="#FFFFFF"
   stroke-width="1.0235"
   stroke-miterlimit="3.86"
   d="M14.72,130.022   c1.053-0.349,2.453-0.349,3.887-0.349c8.761,0,10.483,7.007,17.143,7.007c6.658,0,8.76-7.007,17.522-7.007   c8.76,0,10.512,6.658,17.17,7.007c6.659-0.349,8.762-7.007,17.523-7.007c8.761,0,10.514,7.007,17.172,7.007   c7.012,0,8.762-7.007,17.523-7.007c1.755,0,3.155,0,4.557,0.697c0.7,1.055,1.4,2.104,1.754,3.158   c-1.754-0.706-4.556-1.403-6.312-1.403c-6.658,0-8.761,7.008-17.523,7.008c-8.76,0-10.514-7.008-17.172-7.008   c-7.008,0-8.761,7.008-17.523,7.008c-8.76,0-10.512-7.008-17.17-7.008c-6.659,0-8.762,7.008-17.522,7.008   c-8.762,0-10.515-7.008-17.143-7.008c-1.782,0-4.587,0.349-6.338,1.403c0,0,0.703-1.403,1.052-2.104   C14.02,131.077,14.72,130.022,14.72,130.022z"
   id="path41" />
	<path
   fill="#F8AE16"
   d="M41.357,112.151c0,2.104-0.35,3.503-0.703,4.906c0.703,0,1.403,0.349,1.752,0.702   c0.351,0.344,1.754,1.05,2.103,1.398c0.705,0.702,0.38,1.752-0.349,2.105c-0.704,0.697-1.403,0.697-2.103,0v-1.055   c-0.351,0.353-0.351,0.353-0.7,0.701c-1.053,0.702-3.156,1.406-3.855,0.702c-1.754,1.403-3.156,1.752-5.959,1.752   c-0.699,0.7-1.399,1.755-2.102,2.452c2.102,0,3.505,0.706,3.505,1.403c0,1.055-1.752,1.752-3.855,1.752   c-1.399,0-3.156-0.697-3.507-1.05H23.48c-0.699,0-1.399,0-2.099-0.354H20.33h-0.704c-1.401,0-2.453,0.354-3.503,1.757   c-1.053,1.046-3.854,2.452-7.362,2.452c-4.55,0.349-8.411-0.7-8.411-2.452c-0.351-1.757,3.156-3.509,7.711-3.857h1.054   c2.803-0.349,4.905-4.204,4.905-8.062c0-5.961,4.205-10.862,9.46-10.862c0.704,0,1.403,0,2.103,0.349   c2.457,0.352,4.56,0.704,8.062-1.052c1.05-1.046,3.503-2.101,5.958-2.101c2.103,0,3.853,0.698,5.285,1.4   c1.021,1.053,1.725,1.053,1.725,2.104c0,0.702-0.703,2.101-1.051,2.454c0,0-0.349,1.747-1.054,2.104   c-0.7,0-0.349-0.705-0.349-0.705C43.457,111.802,42.406,111.802,41.357,112.151 M120.911,127.568h-1.054   c-0.7,0.354-1.399,0.354-2.452,0.354h-1.75c-0.673,0.353-2.105,1.05-3.855,1.05c-1.756,0-3.506-0.697-3.506-1.752   c0-0.697,1.403-1.403,3.506-1.403c-1.053-0.697-1.756-1.752-2.103-2.452c-2.805,0-4.205-0.349-5.958-1.752   c-1.052,0.704-2.802,0-4.205-0.702c0-0.349-0.35-0.349-0.35-0.701c0,0.353,0,0.701-0.354,1.055c-0.35,0.697-1.371,0.697-2.103,0   c-0.7-0.354-0.7-1.403-0.351-2.105c0.704-0.349,2.104-1.055,2.454-1.398c0.354-0.354,1.054-0.702,1.753-0.702   c-0.7-1.403-0.7-2.803-0.7-4.906c-1.054-0.35-2.104-0.35-3.157-1.055c0,0,0.353,0.705-0.351,0.705c-0.7-0.356-0.7-2.104-0.7-2.104   c-0.7-0.354-1.403-1.752-1.403-2.454c0-1.051,1.055-1.051,2.103-2.104c1.083-0.702,3.157-1.4,5.259-1.4   c2.45,0,4.905,1.055,5.955,2.101c3.506,1.756,5.608,1.403,8.065,1.052c0.697-0.349,1.051-0.349,1.75-0.349   c5.608,0,9.813,4.901,9.813,10.862c0,3.857,2.103,7.713,4.905,8.062h0.7c4.556,0.349,8.441,2.101,8.062,3.857   c0,1.752-3.854,2.801-8.381,2.452c-3.531,0-6.688-1.406-7.742-2.452c-0.694-1.403-2.103-1.757-3.151-1.757H120.911z"
   id="path43" />
	<path
   fill="#FFFFFF"
   d="M38.201,106.544c0,0-0.351,0-0.699,0.349c0,0.352-0.351,0.352-0.351,0.352c0,0.697,1.753,0.353,1.753-0.352   C38.904,106.544,38.904,106.189,38.201,106.544 M38.554,106.189c0.35,0,0.7,0.354,0.7,0.703c0,0.704-0.7,1.049-1.403,1.049   c-0.349,0.354-1.048,0-1.048-0.697c0.349-2.104,3.15-1.755,6.658-1.755v0.355h-4.207C38.904,105.845,38.554,105.845,38.554,106.189    M42.757,106.189c0.349,0,0.703,0.354,0.703,0.703c0,0.352-0.354,0.704-0.703,0.704c-0.351,0-0.7-0.353-0.7-0.704   C42.057,106.544,42.406,106.189,42.757,106.189 M42.757,106.544l-0.351,0.349c0,0.352,0.351,0.352,0.351,0.352   c0.349,0,0.349,0,0.349-0.352C43.105,106.893,43.105,106.544,42.757,106.544 M32.945,107.941v1.055l-0.349,0.349v-1.05   c0-1.051,0-1.402,0.349-2.105c-2.454,1.055-3.856,1.055-5.579,1.055c3.477,1.403,5.93,5.609,5.93,10.162   c0,2.105-0.351,3.857-1.403,5.604c2.452,0,3.854,0,5.257-1.398c0,0-0.349-0.349-0.7-0.702c-0.324-0.346-0.704-1.398-0.704-2.453   h0.38v0.701c0,1.051,0.675,1.752,1.023,2.105l0.351,0.349c0.699,0.352,2.802,0,3.855-1.048c0.35,0,0.35-0.355,0.35-0.355h0.351   c0,1.403,1.403,1.755,2.103,1.055c0.729-0.699,0.729-1.403,0.349-1.752c-0.349-0.702-1.752-1.055-2.103-1.757   c-0.349-0.349-1.049-0.349-1.752-0.349v-0.349c0.353-1.403,0.703-2.807,0.703-4.558h-1.753c-2.453,0-4.555-0.701-5.955-2.101   v-0.353c0.347-0.354,0.697-0.702,1.05-1.051h0.7c-0.7,0.349-0.7,0.697-1.403,1.403c1.403,1.051,3.155,1.748,5.608,1.748h1.753   c1.049-0.349,2.103-0.697,2.803-1.051h0.349c-0.349,0.354-0.349,0.702,0,0.702c0.703-0.349,1.054-1.399,1.054-2.105   c0.349-0.349,1.049-1.752,1.049-2.449c0-0.7-0.7-1.055-1.049-1.399c-0.351,0-0.351-0.355-0.674-0.355   c-1.429-1.048-3.182-1.4-5.285-1.4c-2.453,0-4.905,0.703-5.955,1.756c-0.352,0.699-0.703,1.048-0.703,1.752V107.941z    M20.328,127.922h-0.703c-1.4,0-2.452,0.349-3.151,1.403c-1.403,1.398-4.207,2.452-7.712,2.801   c-4.55,0.349-8.407-1.054-8.761-2.801c0-2.109,3.856-3.509,8.062-3.86h1.054c2.803-0.698,4.905-4.201,4.905-8.059   c0-5.956,4.205-10.862,9.46-10.862h2.103c2.457,0.349,4.56,0.7,8.065-0.699c1.05-1.403,3.502-2.107,5.955-2.107   c2.103,0,4.205,0.352,5.285,1.403c1.023,0.704,2.073,1.049,2.073,2.104c0,0.697-0.7,2.101-1.05,2.803   c-0.349,0.353-0.7,1.752-1.023,1.752c-0.729,0.349-0.729,0-0.729-0.349c-0.7,0.349-1.754,0.697-2.454,0.697   c0,2.104-0.35,3.507-0.7,4.91c1.05,0,1.05,0.349,1.75,0.697c0.703,0.354,1.752,1.055,2.132,1.403   c0.323,0.702,0.323,1.752-0.38,2.454c-1.049,0.7-2.452,0.352-2.802-1.048v0.346c-1.053,0.702-3.153,1.402-4.205,0.702   c-1.754,1.755-3.156,1.755-5.959,1.755c-0.349,1.046-1.05,1.752-1.753,2.449c1.753,0,3.157,0.702,3.157,1.399   c0,1.055-1.752,1.756-3.856,1.756c-1.399,0-2.802-0.353-3.505-1.05c-0.7,0-1.399,0.349-2.103,0.349   c-0.699,0-1.399-0.349-2.099-0.349H20.328z M16.822,126.17v-0.354c0,0,1.054,0.702,1.783,1.051c0.324,0.349,0.675,0.349,1.02,0.704   h1.757c0.7,0.351,1.4,0.351,2.099,0.351c0.704,0,1.403,0,2.103-0.351h0.351c0.353,0.699,1.756,1.048,3.155,1.048   c2.104,0,3.856-0.697,3.856-1.403c0-0.349-1.403-1.046-3.505-1.399c0.703-0.697,1.403-1.752,2.102-2.806   c1.055-1.398,1.403-3.499,1.403-5.604c0-5.259-3.157-9.465-7.362-10.514c-0.7,0-1.399-0.349-2.103-0.349   c-4.875,0-9.46,4.906-9.46,10.862c0,3.857-1.753,7.713-4.905,8.059c-0.354,0-0.703,0.352-1.054,0.352   c-4.556,0.354-7.707,1.755-7.707,3.509c0,1.398,3.856,2.801,8.407,2.452c3.505-0.352,6.309-1.403,7.362-2.806   c0.699-1.05,1.753-1.4,2.806-1.4C18.225,127.216,17.525,126.519,16.822,126.17"
   id="path45" />
	<path
   fill="#FFFFFF"
   d="M103.038,106.544c0,0,0.349,0.349,0.7,0.349c0,0.352,0.349,0.704,0.349,0.704   c0,0.698-1.752,0.345-1.752-0.704C102.334,106.893,102.334,106.544,103.038,106.544 M102.687,106.189   c-0.353,0-0.703,0.354-0.703,1.055c0,0.353,0.703,0.697,1.402,1.051c0.351,0,1.051-0.354,1.051-0.698   c-0.351-2.107-3.156-2.107-6.655-1.752v0.345c0,0,2.099-0.345,4.202,0H102.687z M98.478,106.544c-0.347,0-0.696,0-0.696,0.349   c0,0.704,0.349,0.704,0.696,0.704c0.353,0,0.703,0,0.703-0.704C99.181,106.544,98.831,106.544,98.478,106.544 M98.478,106.893   h0.353c0,0.352-0.353,0.352-0.353,0.352c-0.347,0-0.347,0-0.347-0.352H98.478z M108.291,108.295v1.05h0.351v-1.05   c0-0.698,0-1.402-0.351-1.751c2.454,0.7,3.856,1.053,5.61,0.7c-3.505,1.752-5.958,5.609-5.958,10.162   c0,2.105,0.349,4.206,1.403,5.961c-2.454,0-3.856-0.356-5.26-1.755c0,0,0.351-0.349,0.7-0.349c0.354-0.699,0.703-1.403,0.703-2.454   h-0.349v0.349c0,1.051-0.704,1.752-1.055,2.105l-0.349,0.349c-0.7,0.7-2.802,0-3.856-0.702c-0.35-0.346-0.35-0.346-0.35-0.701   l-0.35,0.355c0,1.048-1.399,1.399-2.102,0.699c-0.7-0.354-0.7-1.403-0.352-1.752c0.352-0.702,1.75-1.055,2.103-1.403   c0.351-0.702,1.05-0.702,1.753-0.702c-0.349-1.403-0.703-3.155-0.703-4.906h1.753c2.452,0,4.585-0.701,5.957-1.752v-0.349   c-0.352-0.353-0.699-1.055-1.049-1.055h-0.703c0.703,0,0.703,0.349,1.4,1.055c-1.4,1.051-3.153,1.748-5.605,1.748h-1.753   c-1.05-0.349-2.099-0.349-2.802-1.051l-0.352,0.354c0.352,0.349,0.352,0.349,0,0.349c-0.703,0-0.703-1.399-1.052-1.752   c-0.351-0.702-1.05-2.105-1.05-2.803c0-0.7,0.7-0.7,1.05-1.055c0.349-0.345,0.349-0.345,0.703-0.7c1.403-0.697,3.152-1.4,5.255-1.4   c2.452,0,4.908,0.703,5.957,2.101c0.351,0.354,0.7,1.055,0.7,1.407V108.295z M120.909,127.922h0.699   c1.403,0,2.458,0.349,3.157,1.403c1.403,1.398,4.205,2.452,7.738,2.801c4.525,0.349,8.381-0.7,8.761-2.801   c0-1.754-3.882-3.509-8.089-3.86h-1.052c-2.802-0.346-4.905-4.201-4.905-8.059c0-5.956-4.207-10.862-9.46-10.862   c-0.705,0-1.405,0-2.104,0.349c-2.455,0.352-4.557,0.704-8.062-1.048c-1.049-1.403-3.505-2.107-5.957-2.107   c-2.104,0-4.176,0.704-5.255,1.403c-1.054,0.704-2.102,1.049-2.102,2.104c0,0.697,0.699,2.101,1.048,2.803   c0.351,0.701,0.699,1.752,1.402,2.101c0.352,0,0.352,0,0.352-0.349c0.703,0.349,1.751,0.349,2.452,0.701   c0,1.751,0.35,3.154,0.705,4.558c-1.054,0-1.054,0.697-1.757,1.051c-0.696,0.349-1.75,0.701-2.099,1.05   c-0.354,0.702-0.354,1.752,0.349,2.454c1.055,0.7,2.454,0.352,2.803-0.702c1.053,1.054,3.156,1.751,4.207,1.054   c1.752,1.403,3.155,1.752,5.958,1.752c0.349,0.697,1.049,1.403,1.752,2.101c-1.752,0-3.157,0.702-3.157,1.755   c0,1.048,1.753,1.754,3.856,1.754c1.399,0,2.833-0.706,3.505-1.055h2.104c0.7,0,1.399,0,2.099-0.349H120.909z M124.414,126.17   v-0.354c0,0-1.052,1.051-1.751,1.399c-0.352,0-0.704,0.355-1.055,0.355h-1.751c-0.7,0.351-1.399,0.351-2.099,0.351h-2.104h-0.349   c-0.323,0.349-1.758,1.05-3.157,1.05c-2.103,0-3.856-0.701-3.856-1.4c0-0.704,1.405-1.401,3.508-1.401v-0.354   c-0.703-0.697-1.403-1.403-2.103-2.449c-1.054-1.755-1.405-3.855-1.405-5.961c0-5.259,3.157-9.465,7.362-10.162   c0.7-0.352,1.4-0.352,2.104-0.352c4.905,0,9.46,4.558,9.46,10.514c0,3.857,1.752,8.059,4.905,8.41h1.052   c4.556,0.354,7.709,2.105,7.709,3.509c0,1.747-3.856,2.801-8.381,2.452c-3.533,0-6.335-1.403-7.389-2.452   c-0.7-1.055-1.752-1.403-2.803-1.754C123.011,127.216,123.742,126.519,124.414,126.17"
   id="path47" />
</g>
</svg>