<?xml version="1.0" encoding="UTF-8"?>
<!DOCTYPE svg PUBLIC "-//W3C//DTD SVG 1.1//EN" "http://www.w3.org/Graphics/SVG/1.1/DTD/svg11.dtd">
<svg xmlns="http://www.w3.org/2000/svg" version="1.1" width="610px" height="550px" style="shape-rendering:geometricPrecision; text-rendering:geometricPrecision; image-rendering:optimizeQuality; fill-rule:evenodd; clip-rule:evenodd" xmlns:xlink="http://www.w3.org/1999/xlink">
<g><path style="opacity:1" fill="#020203" d="M 391.5,16.5 C 423.698,13.6394 454.031,19.8061 482.5,35C 487.231,37.9557 489.064,42.1224 488,47.5C 482.503,51.5568 476.337,54.0568 469.5,55C 453.014,56.3481 436.68,58.6815 420.5,62C 407.743,65.4493 396.41,71.4493 386.5,80C 367.015,81.0062 347.515,81.5062 328,81.5C 310.235,81.7198 292.568,81.0531 275,79.5C 274.333,77.8333 274.333,76.1667 275,74.5C 307.267,41.9497 346.101,22.6163 391.5,16.5 Z"/></g>
<g><path style="opacity:1" fill="#727690" d="M 418.5,21.5 C 429.269,21.9026 439.602,23.9026 449.5,27.5C 395.271,19.9635 349.271,35.7968 311.5,75C 314.482,75.498 317.482,75.6646 320.5,75.5C 321.833,75.5 323.167,75.5 324.5,75.5C 324.5,75.8333 324.5,76.1667 324.5,76.5C 310.151,76.8326 295.818,76.4993 281.5,75.5C 281.624,74.8933 281.957,74.56 282.5,74.5C 285.962,75.4816 289.629,75.815 293.5,75.5C 294.833,75.5 296.167,75.5 297.5,75.5C 301.315,76.1715 304.149,74.8381 306,71.5C 306.333,71.8333 306.667,72.1667 307,72.5C 336.909,42.6636 373.743,26.1636 417.5,23C 418.056,22.6174 418.389,22.1174 418.5,21.5 Z"/></g>
<g><path style="opacity:1" fill="#6b709e" d="M 418.5,21.5 C 418.389,22.1174 418.056,22.6174 417.5,23C 373.743,26.1636 336.909,42.6636 307,72.5C 306.667,72.1667 306.333,71.8333 306,71.5C 304.149,74.8381 301.315,76.1715 297.5,75.5C 302.57,68.9237 308.237,62.757 314.5,57C 323.694,49.9615 332.694,42.7949 341.5,35.5C 352.499,29.992 364.165,26.1587 376.5,24C 390.579,21.3782 404.579,20.5449 418.5,21.5 Z"/></g>
<g><path style="opacity:1" fill="#b4b6bb" d="M 463.5,32.5 C 468.28,33.7495 472.613,35.7495 476.5,38.5C 470.166,37.0661 463.833,35.5661 457.5,34C 455.231,33.2419 453.064,33.4086 451,34.5C 446.746,33.8344 442.413,32.8344 438,31.5C 431.721,31.5875 425.387,31.5875 419,31.5C 417.667,32.1667 416.333,32.8333 415,33.5C 411.969,33.5105 408.803,32.8438 405.5,31.5C 383.201,35.7612 363.201,44.9279 345.5,59C 339.292,63.7073 333.958,69.2073 329.5,75.5C 327.833,75.5 326.167,75.5 324.5,75.5C 323.167,75.5 321.833,75.5 320.5,75.5C 340.394,51.6414 365.56,36.9747 396,31.5C 401.582,29.445 407.582,28.1117 414,27.5C 421.085,27.5727 428.085,27.5727 435,27.5C 444.578,28.6797 454.078,30.3464 463.5,32.5 Z"/></g>
<g><path style="opacity:1" fill="#8b8f99" d="M 449.5,27.5 C 454.257,29.1801 458.923,30.8468 463.5,32.5C 454.078,30.3464 444.578,28.6797 435,27.5C 428.085,27.5727 421.085,27.5727 414,27.5C 407.582,28.1117 401.582,29.445 396,31.5C 365.56,36.9747 340.394,51.6414 320.5,75.5C 317.482,75.6646 314.482,75.498 311.5,75C 349.271,35.7968 395.271,19.9635 449.5,27.5 Z"/></g>
<g><path style="opacity:1" fill="#cbcfcf" d="M 476.5,38.5 C 479.198,38.8449 481.198,40.1782 482.5,42.5C 482.5,43.8333 481.833,44.5 480.5,44.5C 476.904,43.8007 473.404,42.8007 470,41.5C 466.475,43.1903 463.475,42.5236 461,39.5C 459.938,40.0968 458.772,40.4302 457.5,40.5C 427.804,33.9134 399.804,38.08 373.5,53C 365.921,57.577 360.088,63.7437 356,71.5C 355.51,72.7932 355.343,74.1266 355.5,75.5C 352.5,75.5 349.5,75.5 346.5,75.5C 347.636,71.2294 349.802,67.5627 353,64.5C 364.207,53.6448 377.374,46.1448 392.5,42C 390.899,41.7266 389.399,41.2266 388,40.5C 384.757,43.5395 380.923,45.0395 376.5,45C 377.759,44.0766 379.092,43.2432 380.5,42.5C 379.635,41.4173 378.635,41.2506 377.5,42C 361.212,50.8033 346.879,61.97 334.5,75.5C 332.833,75.5 331.167,75.5 329.5,75.5C 333.958,69.2073 339.292,63.7073 345.5,59C 363.201,44.9279 383.201,35.7612 405.5,31.5C 408.803,32.8438 411.969,33.5105 415,33.5C 416.333,32.8333 417.667,32.1667 419,31.5C 425.387,31.5875 431.721,31.5875 438,31.5C 442.413,32.8344 446.746,33.8344 451,34.5C 453.064,33.4086 455.231,33.2419 457.5,34C 463.833,35.5661 470.166,37.0661 476.5,38.5 Z"/></g>
<g><path style="opacity:1" fill="#7c88a5" d="M 341.5,35.5 C 332.694,42.7949 323.694,49.9615 314.5,57C 308.237,62.757 302.57,68.9237 297.5,75.5C 296.167,75.5 294.833,75.5 293.5,75.5C 301.961,65.2047 311.295,55.7047 321.5,47C 320.906,46.5357 320.239,46.369 319.5,46.5C 326.237,41.7984 333.57,38.1317 341.5,35.5 Z"/></g>
<g><path style="opacity:1" fill="#cdd5cd" d="M 346.5,75.5 C 342.5,75.5 338.5,75.5 334.5,75.5C 346.879,61.97 361.212,50.8033 377.5,42C 378.635,41.2506 379.635,41.4173 380.5,42.5C 379.092,43.2432 377.759,44.0766 376.5,45C 380.923,45.0395 384.757,43.5395 388,40.5C 389.399,41.2266 390.899,41.7266 392.5,42C 377.374,46.1448 364.207,53.6448 353,64.5C 349.802,67.5627 347.636,71.2294 346.5,75.5 Z"/></g>
<g><path style="opacity:1" fill="#96979a" d="M 480.5,44.5 C 481.833,44.5 482.5,43.8333 482.5,42.5C 483.485,45.4374 482.151,46.7708 478.5,46.5C 468.834,45.4444 459.167,44.2777 449.5,43C 425.78,41.3668 403.78,47.3668 383.5,61C 380,64.5 376.5,68 373,71.5C 372.51,72.7932 372.343,74.1266 372.5,75.5C 370.5,75.5 368.5,75.5 366.5,75.5C 372.696,64.4706 381.363,55.9706 392.5,50C 405.24,43.0353 418.907,39.8687 433.5,40.5C 448.657,40.9516 463.657,42.6183 478.5,45.5C 479.416,45.4573 480.083,45.1239 480.5,44.5 Z"/></g>
<g><path style="opacity:1" fill="#888888" d="M 478.5,46.5 C 474.924,48.7276 470.924,49.7276 466.5,49.5C 461.683,49.7092 457.016,49.7092 452.5,49.5C 435.938,48.6485 419.605,50.1485 403.5,54C 397.716,55.7888 392.383,58.4554 387.5,62C 382.259,66.4163 377.259,70.9163 372.5,75.5C 372.343,74.1266 372.51,72.7932 373,71.5C 376.5,68 380,64.5 383.5,61C 403.78,47.3668 425.78,41.3668 449.5,43C 459.167,44.2777 468.834,45.4444 478.5,46.5 Z"/></g>
<g><path style="opacity:1" fill="#b3b5b9" d="M 480.5,44.5 C 480.083,45.1239 479.416,45.4573 478.5,45.5C 463.657,42.6183 448.657,40.9516 433.5,40.5C 418.907,39.8687 405.24,43.0353 392.5,50C 381.363,55.9706 372.696,64.4706 366.5,75.5C 362.833,75.5 359.167,75.5 355.5,75.5C 355.343,74.1266 355.51,72.7932 356,71.5C 360.088,63.7437 365.921,57.577 373.5,53C 399.804,38.08 427.804,33.9134 457.5,40.5C 458.772,40.4302 459.938,40.0968 461,39.5C 463.475,42.5236 466.475,43.1903 470,41.5C 473.404,42.8007 476.904,43.8007 480.5,44.5 Z"/></g>
<g><path style="opacity:1" fill="#a09aa6" d="M 319.5,46.5 C 320.239,46.369 320.906,46.5357 321.5,47C 311.295,55.7047 301.961,65.2047 293.5,75.5C 289.629,75.815 285.962,75.4816 282.5,74.5C 293.675,63.6616 306.008,54.3283 319.5,46.5 Z"/></g>
<g><path style="opacity:1" fill="#5e5e5e" d="M 452.5,49.5 C 457.016,49.7092 461.683,49.7092 466.5,49.5C 451.956,51.4881 437.29,53.6547 422.5,56C 412.047,58.5331 402.381,62.6998 393.5,68.5C 391.836,66.3209 392.17,64.4875 394.5,63C 405.503,57.3376 417.17,53.6709 429.5,52C 437.328,51.256 444.995,50.4226 452.5,49.5 Z"/></g>
<g><path style="opacity:1" fill="#727272" d="M 452.5,49.5 C 444.995,50.4226 437.328,51.256 429.5,52C 417.17,53.6709 405.503,57.3376 394.5,63C 392.17,64.4875 391.836,66.3209 393.5,68.5C 388.781,73.1937 383.114,75.6937 376.5,76C 359.17,76.4999 341.837,76.6666 324.5,76.5C 324.5,76.1667 324.5,75.8333 324.5,75.5C 326.167,75.5 327.833,75.5 329.5,75.5C 331.167,75.5 332.833,75.5 334.5,75.5C 338.5,75.5 342.5,75.5 346.5,75.5C 349.5,75.5 352.5,75.5 355.5,75.5C 359.167,75.5 362.833,75.5 366.5,75.5C 368.5,75.5 370.5,75.5 372.5,75.5C 377.259,70.9163 382.259,66.4163 387.5,62C 392.383,58.4554 397.716,55.7888 403.5,54C 419.605,50.1485 435.938,48.6485 452.5,49.5 Z"/></g>
<g><path style="opacity:1" fill="#010101" d="M 281.5,99.5 C 309.847,99.2625 338.18,99.7625 366.5,101C 367.944,102.126 368.61,103.626 368.5,105.5C 366.946,113.412 366.112,121.412 366,129.5C 364.933,130.191 363.766,130.691 362.5,131C 322.436,133.267 282.436,132.934 242.5,130C 241.446,128.612 241.28,127.112 242,125.5C 245.261,117.143 249.427,109.31 254.5,102C 263.576,100.889 272.576,100.056 281.5,99.5 Z"/></g>
<g><path style="opacity:1" fill="#b3b5b9" d="M 301.5,104.5 C 304.5,104.5 307.5,104.5 310.5,104.5C 306.96,111.452 304.627,118.786 303.5,126.5C 300.833,126.5 298.167,126.5 295.5,126.5C 295.4,123.333 296.067,120.333 297.5,117.5C 297.291,116.914 296.957,116.414 296.5,116C 298.849,112.468 300.516,108.635 301.5,104.5 Z"/></g>
<g><path style="opacity:1" fill="#d7dad8" d="M 310.5,104.5 C 320.167,104.5 329.833,104.5 339.5,104.5C 344.64,105.488 349.974,105.821 355.5,105.5C 355.97,110.685 356.636,115.851 357.5,121C 357.419,122.924 357.086,124.757 356.5,126.5C 350.833,126.5 345.167,126.5 339.5,126.5C 327.5,126.5 315.5,126.5 303.5,126.5C 304.627,118.786 306.96,111.452 310.5,104.5 Z"/></g>
<g><path style="opacity:1" fill="#9d95a1" d="M 268.5,105.5 C 271.397,105.125 274.063,105.625 276.5,107C 273.132,113.232 270.466,119.732 268.5,126.5C 265.5,126.5 262.5,126.5 259.5,126.5C 262.304,119.423 265.304,112.423 268.5,105.5 Z"/></g>
<g><path style="opacity:1" fill="#6f677d" d="M 262.5,105.5 C 271.986,104.506 281.652,104.173 291.5,104.5C 290.828,105.267 289.995,105.934 289,106.5C 285.925,113.168 284.092,119.835 283.5,126.5C 284.833,126.5 286.167,126.5 287.5,126.5C 290.167,126.5 292.833,126.5 295.5,126.5C 298.167,126.5 300.833,126.5 303.5,126.5C 315.5,126.5 327.5,126.5 339.5,126.5C 311.833,127.833 284.167,127.833 256.5,126.5C 257.5,126.5 258.5,126.5 259.5,126.5C 262.5,126.5 265.5,126.5 268.5,126.5C 270.466,119.732 273.132,113.232 276.5,107C 274.063,105.625 271.397,105.125 268.5,105.5C 266.5,105.5 264.5,105.5 262.5,105.5 Z"/></g>
<g><path style="opacity:1" fill="#787887" d="M 291.5,104.5 C 292.833,104.5 294.167,104.5 295.5,104.5C 291.474,111.198 288.807,118.532 287.5,126.5C 286.167,126.5 284.833,126.5 283.5,126.5C 284.092,119.835 285.925,113.168 289,106.5C 289.995,105.934 290.828,105.267 291.5,104.5 Z"/></g>
<g><path style="opacity:1" fill="#909099" d="M 295.5,104.5 C 297.5,104.5 299.5,104.5 301.5,104.5C 300.516,108.635 298.849,112.468 296.5,116C 296.957,116.414 297.291,116.914 297.5,117.5C 296.067,120.333 295.4,123.333 295.5,126.5C 292.833,126.5 290.167,126.5 287.5,126.5C 288.807,118.532 291.474,111.198 295.5,104.5 Z"/></g>
<g><path style="opacity:1" fill="#b5b2bb" d="M 262.5,105.5 C 264.5,105.5 266.5,105.5 268.5,105.5C 265.304,112.423 262.304,119.423 259.5,126.5C 258.5,126.5 257.5,126.5 256.5,126.5C 253.482,126.665 250.482,126.498 247.5,126C 250.435,119.297 253.768,112.797 257.5,106.5C 259.045,105.548 260.712,105.215 262.5,105.5 Z"/></g>
<g><path style="opacity:1" fill="#b4b2a6" d="M 339.5,104.5 C 347.196,104.354 354.862,104.687 362.5,105.5C 361.768,112.476 361.435,119.476 361.5,126.5C 359.833,126.5 358.167,126.5 356.5,126.5C 357.086,124.757 357.419,122.924 357.5,121C 356.636,115.851 355.97,110.685 355.5,105.5C 349.974,105.821 344.64,105.488 339.5,104.5 Z"/></g>
<g><path style="opacity:1" fill="#010102" d="M 260.5,150.5 C 297.179,150.217 333.845,150.717 370.5,152C 374.334,160.52 377.501,169.353 380,178.5C 381.357,182.143 380.19,184.31 376.5,185C 352.167,185.167 327.833,185.333 303.5,185.5C 277.786,185.649 252.119,185.149 226.5,184C 225.941,183.275 225.608,182.442 225.5,181.5C 226.491,177.869 227.324,174.202 228,170.5C 229.334,163.974 231.5,157.808 234.5,152C 243.343,151.83 252.01,151.33 260.5,150.5 Z"/></g>
<g><path style="opacity:1" fill="#bab6bd" d="M 248.5,156.5 C 249.167,156.5 249.833,156.5 250.5,156.5C 248.629,164.06 247.295,171.727 246.5,179.5C 243.941,179.198 241.607,179.532 239.5,180.5C 236.833,180.5 234.167,180.5 231.5,180.5C 233.17,172.484 234.836,164.484 236.5,156.5C 240.5,156.5 244.5,156.5 248.5,156.5 Z"/></g>
<g><path style="opacity:1" fill="#948c96" d="M 250.5,156.5 C 253.85,156.335 257.183,156.502 260.5,157C 258.463,164.628 257.13,172.462 256.5,180.5C 250.833,180.5 245.167,180.5 239.5,180.5C 241.607,179.532 243.941,179.198 246.5,179.5C 247.295,171.727 248.629,164.06 250.5,156.5 Z"/></g>
<g><path style="opacity:1" fill="#6d667d" d="M 248.5,156.5 C 258.987,155.506 269.654,155.172 280.5,155.5C 280.503,164.051 280.17,172.384 279.5,180.5C 271.833,180.5 264.167,180.5 256.5,180.5C 257.13,172.462 258.463,164.628 260.5,157C 257.183,156.502 253.85,156.335 250.5,156.5C 249.833,156.5 249.167,156.5 248.5,156.5 Z"/></g>
<g><path style="opacity:1" fill="#76767e" d="M 280.5,155.5 C 282.5,155.5 284.5,155.5 286.5,155.5C 286.845,163.281 287.012,171.281 287,179.5C 290.057,180.451 293.223,180.784 296.5,180.5C 301.833,180.5 307.167,180.5 312.5,180.5C 319.5,180.5 326.5,180.5 333.5,180.5C 315.647,181.786 297.647,181.786 279.5,180.5C 280.17,172.384 280.503,164.051 280.5,155.5 Z"/></g>
<g><path style="opacity:1" fill="#a4a5aa" d="M 286.5,155.5 C 289.833,155.5 293.167,155.5 296.5,155.5C 296.672,157.492 296.005,159.158 294.5,160.5C 295.415,161.328 296.081,162.328 296.5,163.5C 295.31,165.359 295.31,167.192 296.5,169C 296.056,170.762 295.556,170.595 295,168.5C 294.342,170.108 294.842,171.275 296.5,172C 296.201,173.32 296.034,174.82 296,176.5C 295.237,173.937 294.737,173.937 294.5,176.5C 294.752,178.073 295.418,179.406 296.5,180.5C 293.223,180.784 290.057,180.451 287,179.5C 287.012,171.281 286.845,163.281 286.5,155.5 Z"/></g>
<g><path style="opacity:1" fill="#bbbec0" d="M 296.5,155.5 C 315.341,155.17 334.007,155.503 352.5,156.5C 343.379,156.593 334.379,156.593 325.5,156.5C 324.808,157.025 324.308,157.692 324,158.5C 321.276,157.224 318.276,156.558 315,156.5C 312.167,156.833 309.333,157.167 306.5,157.5C 305.998,158.716 305.665,159.883 305.5,161C 306.304,167.121 307.138,173.287 308,179.5C 308.833,178 310,176.833 311.5,176C 310.106,175.044 309.439,173.711 309.5,172C 310.237,169.443 310.57,166.943 310.5,164.5C 311.318,166.108 311.985,167.775 312.5,169.5C 312.283,173.291 312.283,176.958 312.5,180.5C 307.167,180.5 301.833,180.5 296.5,180.5C 295.418,179.406 294.752,178.073 294.5,176.5C 294.737,173.937 295.237,173.937 296,176.5C 296.034,174.82 296.201,173.32 296.5,172C 294.842,171.275 294.342,170.108 295,168.5C 295.556,170.595 296.056,170.762 296.5,169C 295.31,167.192 295.31,165.359 296.5,163.5C 296.081,162.328 295.415,161.328 294.5,160.5C 296.005,159.158 296.672,157.492 296.5,155.5 Z"/></g>
<g><path style="opacity:1" fill="#d9dcdd" d="M 352.5,156.5 C 352.833,156.5 353.167,156.5 353.5,156.5C 353.383,158.484 354.05,160.15 355.5,161.5C 354.975,162.192 354.308,162.692 353.5,163C 354.376,164.586 355.376,166.086 356.5,167.5C 355.975,168.192 355.308,168.692 354.5,169C 354.872,171.325 356.205,173.491 358.5,175.5C 357.193,176.865 357.193,178.198 358.5,179.5C 358.5,179.833 358.5,180.167 358.5,180.5C 350.167,180.5 341.833,180.5 333.5,180.5C 326.5,180.5 319.5,180.5 312.5,180.5C 312.283,176.958 312.283,173.291 312.5,169.5C 311.985,167.775 311.318,166.108 310.5,164.5C 310.57,166.943 310.237,169.443 309.5,172C 309.439,173.711 310.106,175.044 311.5,176C 310,176.833 308.833,178 308,179.5C 307.138,173.287 306.304,167.121 305.5,161C 305.665,159.883 305.998,158.716 306.5,157.5C 309.333,157.167 312.167,156.833 315,156.5C 318.276,156.558 321.276,157.224 324,158.5C 324.308,157.692 324.808,157.025 325.5,156.5C 334.379,156.593 343.379,156.593 352.5,156.5 Z"/></g>
<g><path style="opacity:1" fill="#d6d0c8" d="M 353.5,156.5 C 356.167,156.5 358.833,156.5 361.5,156.5C 361.389,157.117 361.056,157.617 360.5,158C 362.913,165.36 364.913,172.527 366.5,179.5C 363.833,179.5 361.167,179.5 358.5,179.5C 357.193,178.198 357.193,176.865 358.5,175.5C 356.205,173.491 354.872,171.325 354.5,169C 355.308,168.692 355.975,168.192 356.5,167.5C 355.376,166.086 354.376,164.586 353.5,163C 354.308,162.692 354.975,162.192 355.5,161.5C 354.05,160.15 353.383,158.484 353.5,156.5 Z"/></g>
<g><path style="opacity:1" fill="#c2c1b2" d="M 361.5,156.5 C 363.604,156.201 365.604,156.534 367.5,157.5C 370.301,165.042 372.635,172.708 374.5,180.5C 369.167,180.5 363.833,180.5 358.5,180.5C 358.5,180.167 358.5,179.833 358.5,179.5C 361.167,179.5 363.833,179.5 366.5,179.5C 364.913,172.527 362.913,165.36 360.5,158C 361.056,157.617 361.389,157.117 361.5,156.5 Z"/></g>
<g><path style="opacity:1" fill="#000000" d="M 220.5,205.5 C 275.834,205.333 331.168,205.5 386.5,206C 388.259,207.008 389.426,208.508 390,210.5C 392.964,220.02 395.131,229.687 396.5,239.5C 334.458,240.061 272.458,240.061 210.5,239.5C 211.726,229.979 213.893,220.646 217,211.5C 217.713,209.147 218.879,207.147 220.5,205.5 Z"/></g>
<g><path style="opacity:1" fill="#6e677e" d="M 253.5,210.5 C 261.5,210.5 269.5,210.5 277.5,210.5C 278.141,211.482 278.807,212.482 279.5,213.5C 278.212,220.703 277.545,227.703 277.5,234.5C 280.059,234.198 282.393,234.532 284.5,235.5C 272.167,235.5 259.833,235.5 247.5,235.5C 249.999,227.353 251.999,219.02 253.5,210.5 Z"/></g>
<g><path style="opacity:1" fill="#bebcc3" d="M 232.5,210.5 C 230.58,218.842 228.58,226.842 226.5,234.5C 223.167,234.5 219.833,234.5 216.5,234.5C 218.496,226.518 220.496,218.518 222.5,210.5C 225.833,210.5 229.167,210.5 232.5,210.5 Z"/></g>
<g><path style="opacity:1" fill="#b5acb7" d="M 232.5,210.5 C 234.833,210.5 237.167,210.5 239.5,210.5C 238.384,218.86 237.051,226.86 235.5,234.5C 232.5,234.5 229.5,234.5 226.5,234.5C 228.58,226.842 230.58,218.842 232.5,210.5 Z"/></g>
<g><path style="opacity:1" fill="#978f99" d="M 239.5,210.5 C 244.167,210.5 248.833,210.5 253.5,210.5C 251.999,219.02 249.999,227.353 247.5,235.5C 236.417,235.832 226.083,235.499 216.5,234.5C 219.833,234.5 223.167,234.5 226.5,234.5C 229.5,234.5 232.5,234.5 235.5,234.5C 237.051,226.86 238.384,218.86 239.5,210.5 Z"/></g>
<g><path style="opacity:1" fill="#8e8e96" d="M 277.5,210.5 C 282.833,210.5 288.167,210.5 293.5,210.5C 292.069,212.401 291.069,214.568 290.5,217C 291.516,222.633 291.516,228.3 290.5,234C 294.821,234.499 299.154,234.666 303.5,234.5C 305.5,234.5 307.5,234.5 309.5,234.5C 309.5,234.833 309.5,235.167 309.5,235.5C 301.167,235.5 292.833,235.5 284.5,235.5C 282.393,234.532 280.059,234.198 277.5,234.5C 277.545,227.703 278.212,220.703 279.5,213.5C 278.807,212.482 278.141,211.482 277.5,210.5 Z"/></g>
<g><path style="opacity:1" fill="#b3b6b9" d="M 293.5,210.5 C 298.5,210.5 303.5,210.5 308.5,210.5C 307.081,211.451 305.415,211.784 303.5,211.5C 302.834,218.839 302.834,226.506 303.5,234.5C 299.154,234.666 294.821,234.499 290.5,234C 291.516,228.3 291.516,222.633 290.5,217C 291.069,214.568 292.069,212.401 293.5,210.5 Z"/></g>
<g><path style="opacity:1" fill="#d5d9d7" d="M 308.5,210.5 C 317.167,210.5 325.833,210.5 334.5,210.5C 334.082,211.222 333.416,211.722 332.5,212C 333.167,212.333 333.833,212.667 334.5,213C 332.084,215.103 332.084,217.103 334.5,219C 332.654,220.091 331.987,221.424 332.5,223C 334.481,223.605 334.815,224.605 333.5,226C 335.79,226.79 336.123,228.124 334.5,230C 335.414,231.406 336.08,232.906 336.5,234.5C 327.5,234.5 318.5,234.5 309.5,234.5C 307.5,234.5 305.5,234.5 303.5,234.5C 302.834,226.506 302.834,218.839 303.5,211.5C 305.415,211.784 307.081,211.451 308.5,210.5 Z"/></g>
<g><path style="opacity:1" fill="#dddee6" d="M 334.5,210.5 C 339.5,210.5 344.5,210.5 349.5,210.5C 351.166,212.992 352.166,215.825 352.5,219C 352.355,219.772 352.022,220.439 351.5,221C 352.906,223.445 354.24,225.945 355.5,228.5C 354.833,229.167 354.167,229.833 353.5,230.5C 354.853,231.524 355.52,232.857 355.5,234.5C 349.167,234.5 342.833,234.5 336.5,234.5C 336.08,232.906 335.414,231.406 334.5,230C 336.123,228.124 335.79,226.79 333.5,226C 334.815,224.605 334.481,223.605 332.5,223C 331.987,221.424 332.654,220.091 334.5,219C 332.084,217.103 332.084,215.103 334.5,213C 333.833,212.667 333.167,212.333 332.5,212C 333.416,211.722 334.082,211.222 334.5,210.5 Z"/></g>
<g><path style="opacity:1" fill="#d8dcda" d="M 349.5,210.5 C 355.833,210.5 362.167,210.5 368.5,210.5C 368.082,211.222 367.416,211.722 366.5,212C 368.754,213.054 369.087,214.554 367.5,216.5C 367.977,217.478 368.643,218.311 369.5,219C 369.413,221.537 369.413,224.037 369.5,226.5C 370.132,228.978 371.132,231.644 372.5,234.5C 366.833,234.5 361.167,234.5 355.5,234.5C 355.52,232.857 354.853,231.524 353.5,230.5C 354.167,229.833 354.833,229.167 355.5,228.5C 354.24,225.945 352.906,223.445 351.5,221C 352.022,220.439 352.355,219.772 352.5,219C 352.166,215.825 351.166,212.992 349.5,210.5 Z"/></g>
<g><path style="opacity:1" fill="#d2cdc4" d="M 368.5,210.5 C 372.167,210.5 375.833,210.5 379.5,210.5C 381.144,211.316 382.31,212.65 383,214.5C 384.84,221.197 386.674,227.864 388.5,234.5C 383.167,234.5 377.833,234.5 372.5,234.5C 371.132,231.644 370.132,228.978 369.5,226.5C 369.413,224.037 369.413,221.537 369.5,219C 368.643,218.311 367.977,217.478 367.5,216.5C 369.087,214.554 368.754,213.054 366.5,212C 367.416,211.722 368.082,211.222 368.5,210.5 Z"/></g>
<g><path style="opacity:1" fill="#b5b4b0" d="M 379.5,210.5 C 381.766,210.141 383.599,210.808 385,212.5C 387.047,220.078 389.214,227.578 391.5,235C 364.169,235.5 336.835,235.667 309.5,235.5C 309.5,235.167 309.5,234.833 309.5,234.5C 318.5,234.5 327.5,234.5 336.5,234.5C 342.833,234.5 349.167,234.5 355.5,234.5C 361.167,234.5 366.833,234.5 372.5,234.5C 377.833,234.5 383.167,234.5 388.5,234.5C 386.674,227.864 384.84,221.197 383,214.5C 382.31,212.65 381.144,211.316 379.5,210.5 Z"/></g>
<g><path style="opacity:1" fill="#060608" d="M 207.5,260.5 C 271.501,260.333 335.501,260.5 399.5,261C 401.101,261.273 402.601,261.773 404,262.5C 406.626,271.964 409.126,281.464 411.5,291C 411.561,292.711 410.894,294.044 409.5,295C 338.501,296.984 267.501,296.984 196.5,295C 195.426,294.261 194.759,293.261 194.5,292C 196.922,282.478 199.422,272.978 202,263.5C 203.719,262.131 205.552,261.131 207.5,260.5 Z"/></g>
<g><path style="opacity:1" fill="#b0a7b2" d="M 206.5,266.5 C 214.984,265.507 223.651,265.174 232.5,265.5C 230.958,273.877 229.291,282.21 227.5,290.5C 222.5,290.5 217.5,290.5 212.5,290.5C 214.165,282.504 215.832,274.504 217.5,266.5C 213.833,266.5 210.167,266.5 206.5,266.5 Z"/></g>
<g><path style="opacity:1" fill="#948b95" d="M 232.5,265.5 C 235.5,265.5 238.5,265.5 241.5,265.5C 241.611,266.117 241.944,266.617 242.5,267C 240.006,274.636 238.339,282.469 237.5,290.5C 234.167,290.5 230.833,290.5 227.5,290.5C 229.291,282.21 230.958,273.877 232.5,265.5 Z"/></g>
<g><path style="opacity:1" fill="#6f657e" d="M 241.5,265.5 C 249.833,265.5 258.167,265.5 266.5,265.5C 266.203,269.387 266.203,273.221 266.5,277C 264.434,278.943 264.101,281.109 265.5,283.5C 265.24,285.187 264.573,286.687 263.5,288C 264.167,288.333 264.833,288.667 265.5,289C 259.156,290.127 252.823,290.96 246.5,291.5C 234.988,291.828 223.654,291.495 212.5,290.5C 217.5,290.5 222.5,290.5 227.5,290.5C 230.833,290.5 234.167,290.5 237.5,290.5C 238.339,282.469 240.006,274.636 242.5,267C 241.944,266.617 241.611,266.117 241.5,265.5 Z"/></g>
<g><path style="opacity:1" fill="#6e6c7d" d="M 266.5,265.5 C 269.167,265.5 271.833,265.5 274.5,265.5C 274.314,269.448 273.648,273.281 272.5,277C 273.42,281.575 273.087,286.408 271.5,291.5C 263.167,291.5 254.833,291.5 246.5,291.5C 252.823,290.96 259.156,290.127 265.5,289C 264.833,288.667 264.167,288.333 263.5,288C 264.573,286.687 265.24,285.187 265.5,283.5C 264.101,281.109 264.434,278.943 266.5,277C 266.203,273.221 266.203,269.387 266.5,265.5 Z"/></g>
<g><path style="opacity:1" fill="#7e7d87" d="M 274.5,265.5 C 276.833,265.5 279.167,265.5 281.5,265.5C 280.444,274.301 279.777,282.968 279.5,291.5C 276.833,291.5 274.167,291.5 271.5,291.5C 273.087,286.408 273.42,281.575 272.5,277C 273.648,273.281 274.314,269.448 274.5,265.5 Z"/></g>
<g><path style="opacity:1" fill="#98989f" d="M 281.5,265.5 C 284.167,265.5 286.833,265.5 289.5,265.5C 289.511,273.85 289.511,282.184 289.5,290.5C 291.415,290.216 293.081,290.549 294.5,291.5C 289.5,291.5 284.5,291.5 279.5,291.5C 279.777,282.968 280.444,274.301 281.5,265.5 Z"/></g>
<g><path style="opacity:1" fill="#b3b5b9" d="M 289.5,265.5 C 294.5,265.5 299.5,265.5 304.5,265.5C 304.5,273.833 304.5,282.167 304.5,290.5C 307.059,290.198 309.393,290.532 311.5,291.5C 305.833,291.5 300.167,291.5 294.5,291.5C 293.081,290.549 291.415,290.216 289.5,290.5C 289.511,282.184 289.511,273.85 289.5,265.5 Z"/></g>
<g><path style="opacity:1" fill="#c7cbcb" d="M 304.5,265.5 C 306.5,265.5 308.5,265.5 310.5,265.5C 310.689,273.426 311.689,281.759 313.5,290.5C 314.719,289.737 315.719,288.737 316.5,287.5C 317.909,288.849 319.243,290.182 320.5,291.5C 317.5,291.5 314.5,291.5 311.5,291.5C 309.393,290.532 307.059,290.198 304.5,290.5C 304.5,282.167 304.5,273.833 304.5,265.5 Z"/></g>
<g><path style="opacity:1" fill="#d6dbd9" d="M 310.5,265.5 C 319.5,265.5 328.5,265.5 337.5,265.5C 338.473,267.3 339.473,269.134 340.5,271C 339.551,271.617 338.718,271.451 338,270.5C 337.308,271.025 336.808,271.692 336.5,272.5C 337.582,272.749 338.915,272.915 340.5,273C 339.521,274.779 339.854,276.445 341.5,278C 340.833,278.333 340.167,278.667 339.5,279C 340.833,279.667 340.833,280.333 339.5,281C 342.003,282.549 342.003,284.216 339.5,286C 343.237,287.668 343.237,289.001 339.5,290C 341.058,290.21 342.391,290.71 343.5,291.5C 335.833,291.5 328.167,291.5 320.5,291.5C 319.243,290.182 317.909,288.849 316.5,287.5C 315.719,288.737 314.719,289.737 313.5,290.5C 311.689,281.759 310.689,273.426 310.5,265.5 Z"/></g>
<g><path style="opacity:1" fill="#dddee6" d="M 337.5,265.5 C 345.833,265.5 354.167,265.5 362.5,265.5C 361.316,266.688 361.316,267.855 362.5,269C 359.833,269.667 359.833,270.333 362.5,271C 362.167,271.333 361.833,271.667 361.5,272C 363.922,273.888 363.922,275.888 361.5,278C 363.928,279.162 364.595,280.829 363.5,283C 364.078,284.811 364.578,286.645 365,288.5C 365.654,287.304 366.154,287.304 366.5,288.5C 365.807,289.518 365.141,290.518 364.5,291.5C 357.5,291.5 350.5,291.5 343.5,291.5C 342.391,290.71 341.058,290.21 339.5,290C 343.237,289.001 343.237,287.668 339.5,286C 342.003,284.216 342.003,282.549 339.5,281C 340.833,280.333 340.833,279.667 339.5,279C 340.167,278.667 340.833,278.333 341.5,278C 339.854,276.445 339.521,274.779 340.5,273C 338.915,272.915 337.582,272.749 336.5,272.5C 336.808,271.692 337.308,271.025 338,270.5C 338.718,271.451 339.551,271.617 340.5,271C 339.473,269.134 338.473,267.3 337.5,265.5 Z"/></g>
<g><path style="opacity:1" fill="#d7dcda" d="M 362.5,265.5 C 368.167,265.5 373.833,265.5 379.5,265.5C 379.791,272.161 381.458,278.661 384.5,285C 383.862,286.707 383.862,288.54 384.5,290.5C 378.021,291.491 371.354,291.824 364.5,291.5C 365.141,290.518 365.807,289.518 366.5,288.5C 366.154,287.304 365.654,287.304 365,288.5C 364.578,286.645 364.078,284.811 363.5,283C 364.595,280.829 363.928,279.162 361.5,278C 363.922,275.888 363.922,273.888 361.5,272C 361.833,271.667 362.167,271.333 362.5,271C 359.833,270.333 359.833,269.667 362.5,269C 361.316,267.855 361.316,266.688 362.5,265.5 Z"/></g>
<g><path style="opacity:1" fill="#d6d0c8" d="M 379.5,265.5 C 382.167,265.5 384.833,265.5 387.5,265.5C 388.568,266.434 389.901,266.768 391.5,266.5C 393.423,274.449 395.09,282.449 396.5,290.5C 392.5,290.5 388.5,290.5 384.5,290.5C 383.862,288.54 383.862,286.707 384.5,285C 381.458,278.661 379.791,272.161 379.5,265.5 Z"/></g>
<g><path style="opacity:1" fill="#c0bec4" d="M 206.5,266.5 C 210.167,266.5 213.833,266.5 217.5,266.5C 215.832,274.504 214.165,282.504 212.5,290.5C 208.5,290.5 204.5,290.5 200.5,290.5C 202.119,282.407 204.119,274.407 206.5,266.5 Z"/></g>
<g><path style="opacity:1" fill="#c1c0b2" d="M 387.5,265.5 C 391.767,265.203 395.934,265.536 400,266.5C 402.012,274.217 404.179,281.884 406.5,289.5C 403.232,290.487 399.898,290.82 396.5,290.5C 395.09,282.449 393.423,274.449 391.5,266.5C 389.901,266.768 388.568,266.434 387.5,265.5 Z"/></g>
<g><path style="opacity:1" fill="#040406" d="M 257.5,313.5 C 310.526,313.093 363.526,313.926 416.5,316C 417.701,316.903 418.535,318.069 419,319.5C 421.335,328.838 423.668,338.172 426,347.5C 428.2,349.615 430.2,351.949 432,354.5C 437.393,375.011 443.393,395.345 450,415.5C 450.978,418.669 450.478,421.503 448.5,424C 483.836,450.601 522.169,472.268 563.5,489C 575.69,494.203 586.523,501.37 596,510.5C 602.361,520.326 600.194,527.492 589.5,532C 584.594,533.476 579.594,534.476 574.5,535C 556.589,536.493 538.756,536.327 521,534.5C 520.5,534.667 520,534.833 519.5,535C 521.559,536.185 521.726,537.352 520,538.5C 518.522,537.022 517.022,535.522 515.5,534C 509.24,532.345 502.907,531.012 496.5,530C 460.083,527.423 423.75,524.423 387.5,521C 318.857,516.768 250.191,516.435 181.5,520C 138.782,521.841 96.1152,524.341 53.5,527.5C 42.2993,528.015 31.2993,526.849 20.5,524C 15.9315,521.459 14.4315,517.625 16,512.5C 19.1311,508.367 22.6311,504.534 26.5,501C 54.0188,487.907 81.3521,474.241 108.5,460C 123.002,451.25 137.335,442.25 151.5,433C 155.132,430.37 158.465,427.37 161.5,424C 159.522,421.503 159.022,418.669 160,415.5C 165.511,395.122 171.178,374.789 177,354.5C 178.191,351.466 180.358,349.799 183.5,349.5C 185.138,339.144 186.971,328.81 189,318.5C 189.833,317.667 190.667,316.833 191.5,316C 213.654,315.029 235.654,314.196 257.5,313.5 Z"/></g>
<g><path style="opacity:1" fill="#514b4e" d="M 379.5,319.5 C 379.5,319.833 379.5,320.167 379.5,320.5C 370.5,320.5 361.5,320.5 352.5,320.5C 335.5,320.5 318.5,320.5 301.5,320.5C 290.167,320.5 278.833,320.5 267.5,320.5C 261.833,320.5 256.167,320.5 250.5,320.5C 249.508,320.672 248.842,320.338 248.5,319.5C 292.165,318.194 335.832,318.194 379.5,319.5 Z"/></g>
<g><path style="opacity:1" fill="#bdbcc0" d="M 200.5,320.5 C 202.167,320.5 203.833,320.5 205.5,320.5C 204.804,329.02 203.471,338.02 201.5,347.5C 201.709,348.086 202.043,348.586 202.5,349C 201.29,350.039 200.29,351.206 199.5,352.5C 195.865,351.886 192.198,351.552 188.5,351.5C 190.274,341.187 191.941,330.853 193.5,320.5C 195.833,320.5 198.167,320.5 200.5,320.5 Z"/></g>
<g><path style="opacity:1" fill="#b5acb7" d="M 205.5,320.5 C 208.833,320.5 212.167,320.5 215.5,320.5C 213.936,328.983 212.603,337.483 211.5,346C 211.833,346.333 212.167,346.667 212.5,347C 211.756,348.815 211.089,350.648 210.5,352.5C 209.167,352.5 207.833,352.5 206.5,352.5C 204.167,352.5 201.833,352.5 199.5,352.5C 200.29,351.206 201.29,350.039 202.5,349C 202.043,348.586 201.709,348.086 201.5,347.5C 203.471,338.02 204.804,329.02 205.5,320.5 Z"/></g>
<g><path style="opacity:1" fill="#a49ca8" d="M 215.5,320.5 C 217.5,320.5 219.5,320.5 221.5,320.5C 219.64,331.098 218.307,341.765 217.5,352.5C 215.167,352.5 212.833,352.5 210.5,352.5C 211.089,350.648 211.756,348.815 212.5,347C 212.167,346.667 211.833,346.333 211.5,346C 212.603,337.483 213.936,328.983 215.5,320.5 Z"/></g>
<g><path style="opacity:1" fill="#938b95" d="M 221.5,320.5 C 225.167,320.5 228.833,320.5 232.5,320.5C 231.503,330.563 230.336,340.897 229,351.5C 225.27,352.46 221.437,352.793 217.5,352.5C 218.307,341.765 219.64,331.098 221.5,320.5 Z"/></g>
<g><path style="opacity:1" fill="#6e657e" d="M 200.5,320.5 C 216.325,319.504 232.325,319.17 248.5,319.5C 248.842,320.338 249.508,320.672 250.5,320.5C 253.962,321.482 257.629,321.815 261.5,321.5C 262.285,327.488 262.619,333.655 262.5,340C 261.833,340.667 261.167,341.333 260.5,342C 261.42,345.629 261.42,349.462 260.5,353.5C 242.326,353.83 224.326,353.497 206.5,352.5C 207.833,352.5 209.167,352.5 210.5,352.5C 212.833,352.5 215.167,352.5 217.5,352.5C 221.437,352.793 225.27,352.46 229,351.5C 230.336,340.897 231.503,330.563 232.5,320.5C 228.833,320.5 225.167,320.5 221.5,320.5C 219.5,320.5 217.5,320.5 215.5,320.5C 212.167,320.5 208.833,320.5 205.5,320.5C 203.833,320.5 202.167,320.5 200.5,320.5 Z"/></g>
<g><path style="opacity:1" fill="#d8dddb" d="M 352.5,321.5 C 352.5,321.167 352.5,320.833 352.5,320.5C 361.5,320.5 370.5,320.5 379.5,320.5C 382.833,320.5 386.167,320.5 389.5,320.5C 390.067,322.03 390.733,323.53 391.5,325C 391.045,327.951 392.045,330.617 394.5,333C 394.318,335.653 393.985,338.32 393.5,341C 395.403,344.473 396.403,347.973 396.5,351.5C 393.023,352.167 389.689,352.834 386.5,353.5C 382.5,353.5 378.5,353.5 374.5,353.5C 373.655,351.088 373.655,348.922 374.5,347C 372.269,344.803 372.269,342.47 374.5,340C 373.773,338.601 373.273,337.101 373,335.5C 372.282,336.451 371.449,336.617 370.5,336C 373.146,334.04 373.146,332.04 370.5,330C 371.022,329.05 371.689,328.216 372.5,327.5C 370.995,326.158 370.328,324.492 370.5,322.5C 364.703,322.062 358.703,321.729 352.5,321.5 Z"/></g>
<g><path style="opacity:1" fill="#d1cbc4" d="M 389.5,320.5 C 394.5,320.5 399.5,320.5 404.5,320.5C 404.854,322.541 404.854,324.374 404.5,326C 406.886,334.479 409.219,342.979 411.5,351.5C 410.833,351.5 410.5,351.833 410.5,352.5C 402.542,353.403 394.542,353.736 386.5,353.5C 389.689,352.834 393.023,352.167 396.5,351.5C 396.403,347.973 395.403,344.473 393.5,341C 393.985,338.32 394.318,335.653 394.5,333C 392.045,330.617 391.045,327.951 391.5,325C 390.733,323.53 390.067,322.03 389.5,320.5 Z"/></g>
<g><path style="opacity:1" fill="#c3c3b4" d="M 379.5,320.5 C 379.5,320.167 379.5,319.833 379.5,319.5C 389.86,319.296 400.194,319.629 410.5,320.5C 413.862,330.792 416.196,341.125 417.5,351.5C 415.5,351.5 413.5,351.5 411.5,351.5C 409.219,342.979 406.886,334.479 404.5,326C 404.854,324.374 404.854,322.541 404.5,320.5C 399.5,320.5 394.5,320.5 389.5,320.5C 386.167,320.5 382.833,320.5 379.5,320.5 Z"/></g>
<g><path style="opacity:1" fill="#b6b1a5" d="M 410.5,320.5 C 411.833,320.5 413.167,320.5 414.5,320.5C 416.578,330.556 418.911,340.556 421.5,350.5C 420.975,351.192 420.308,351.692 419.5,352C 416.518,352.498 413.518,352.665 410.5,352.5C 410.5,351.833 410.833,351.5 411.5,351.5C 413.5,351.5 415.5,351.5 417.5,351.5C 416.196,341.125 413.862,330.792 410.5,320.5 Z"/></g>
<g><path style="opacity:1" fill="#706e7f" d="M 250.5,320.5 C 256.167,320.5 261.833,320.5 267.5,320.5C 268.209,321.404 269.209,321.737 270.5,321.5C 270.077,330.11 270.077,338.777 270.5,347.5C 266.93,349.063 263.597,351.063 260.5,353.5C 261.42,349.462 261.42,345.629 260.5,342C 261.167,341.333 261.833,340.667 262.5,340C 262.619,333.655 262.285,327.488 261.5,321.5C 257.629,321.815 253.962,321.482 250.5,320.5 Z"/></g>
<g><path style="opacity:1" fill="#7e7e87" d="M 267.5,320.5 C 278.833,320.5 290.167,320.5 301.5,320.5C 297.702,321.483 293.702,321.817 289.5,321.5C 285.486,321.334 281.486,321.501 277.5,322C 277.51,329.939 277.844,338.439 278.5,347.5C 275.833,347.5 273.167,347.5 270.5,347.5C 270.077,338.777 270.077,330.11 270.5,321.5C 269.209,321.737 268.209,321.404 267.5,320.5 Z"/></g>
<g><path style="opacity:1" fill="#98979e" d="M 289.5,321.5 C 288.851,328.334 288.184,335.168 287.5,342C 288.757,344.076 288.424,345.91 286.5,347.5C 283.833,347.5 281.167,347.5 278.5,347.5C 277.844,338.439 277.51,329.939 277.5,322C 281.486,321.501 285.486,321.334 289.5,321.5 Z"/></g>
<g><path style="opacity:1" fill="#b3b4b9" d="M 301.5,320.5 C 318.5,320.5 335.5,320.5 352.5,320.5C 352.5,320.833 352.5,321.167 352.5,321.5C 349.5,321.5 346.5,321.5 343.5,321.5C 342.167,321.5 340.833,321.5 339.5,321.5C 330.5,321.5 321.5,321.5 312.5,321.5C 309.833,321.5 307.167,321.5 304.5,321.5C 304.418,330.643 304.751,339.31 305.5,347.5C 299.167,347.5 292.833,347.5 286.5,347.5C 288.424,345.91 288.757,344.076 287.5,342C 288.184,335.168 288.851,328.334 289.5,321.5C 293.702,321.817 297.702,321.483 301.5,320.5 Z"/></g>
<g><path style="opacity:1" fill="#c3c7c7" d="M 312.5,321.5 C 312.531,329.818 312.531,338.151 312.5,346.5C 317.01,346.884 321.343,347.551 325.5,348.5C 318.833,348.167 312.167,347.833 305.5,347.5C 304.751,339.31 304.418,330.643 304.5,321.5C 307.167,321.5 309.833,321.5 312.5,321.5 Z"/></g>
<g><path style="opacity:1" fill="#d4d7d7" d="M 312.5,321.5 C 321.5,321.5 330.5,321.5 339.5,321.5C 339.414,322.496 339.748,323.329 340.5,324C 339.299,326.726 338.299,329.392 337.5,332C 338.211,333.255 339.044,334.421 340,335.5C 341.156,334.007 341.99,334.174 342.5,336C 342.354,337.727 341.687,337.894 340.5,336.5C 339.5,336.833 338.833,337.5 338.5,338.5C 339.767,340.371 339.767,342.204 338.5,344C 340.419,345.804 340.752,347.804 339.5,350C 340.781,353.044 343.115,354.21 346.5,353.5C 347.833,353.5 349.167,353.5 350.5,353.5C 345.015,354.652 339.349,354.818 333.5,354C 330.978,351.91 328.312,350.076 325.5,348.5C 321.343,347.551 317.01,346.884 312.5,346.5C 312.531,338.151 312.531,329.818 312.5,321.5 Z"/></g>
<g><path style="opacity:1" fill="#dde5de" d="M 339.5,321.5 C 340.833,321.5 342.167,321.5 343.5,321.5C 346.816,325.485 346.816,329.318 343.5,333C 343.944,334.762 344.444,334.595 345,332.5C 346.452,333.907 346.285,335.407 344.5,337C 347.167,338 347.167,339 344.5,340C 345.747,343.21 346.747,346.377 347.5,349.5C 346.754,350.736 346.421,352.07 346.5,353.5C 343.115,354.21 340.781,353.044 339.5,350C 340.752,347.804 340.419,345.804 338.5,344C 339.767,342.204 339.767,340.371 338.5,338.5C 338.833,337.5 339.5,336.833 340.5,336.5C 341.687,337.894 342.354,337.727 342.5,336C 341.99,334.174 341.156,334.007 340,335.5C 339.044,334.421 338.211,333.255 337.5,332C 338.299,329.392 339.299,326.726 340.5,324C 339.748,323.329 339.414,322.496 339.5,321.5 Z"/></g>
<g><path style="opacity:1" fill="#dddfe6" d="M 343.5,321.5 C 346.5,321.5 349.5,321.5 352.5,321.5C 358.703,321.729 364.703,322.062 370.5,322.5C 370.328,324.492 370.995,326.158 372.5,327.5C 371.689,328.216 371.022,329.05 370.5,330C 373.146,332.04 373.146,334.04 370.5,336C 371.449,336.617 372.282,336.451 373,335.5C 373.273,337.101 373.773,338.601 374.5,340C 372.269,342.47 372.269,344.803 374.5,347C 373.655,348.922 373.655,351.088 374.5,353.5C 366.5,353.5 358.5,353.5 350.5,353.5C 349.167,353.5 347.833,353.5 346.5,353.5C 346.421,352.07 346.754,350.736 347.5,349.5C 346.747,346.377 345.747,343.21 344.5,340C 347.167,339 347.167,338 344.5,337C 346.285,335.407 346.452,333.907 345,332.5C 344.444,334.595 343.944,334.762 343.5,333C 346.816,329.318 346.816,325.485 343.5,321.5 Z"/></g>
<g><path style="opacity:1" fill="#717173" d="M 311.5,352.5 C 305.5,352.5 299.5,352.5 293.5,352.5C 293.5,354.5 293.5,356.5 293.5,358.5C 297.702,358.183 301.702,358.517 305.5,359.5C 300.833,359.5 296.167,359.5 291.5,359.5C 288.695,358.681 285.695,358.181 282.5,358C 283.051,356.602 283.384,355.268 283.5,354C 282.584,353.722 281.918,353.222 281.5,352.5C 291.652,351.288 301.652,351.288 311.5,352.5 Z"/></g>
<g><path style="opacity:1" fill="#373740" d="M 281.5,352.5 C 281.918,353.222 282.584,353.722 283.5,354C 283.384,355.268 283.051,356.602 282.5,358C 285.695,358.181 288.695,358.681 291.5,359.5C 284.825,359.334 278.158,359.5 271.5,360C 271,360.5 270.5,361 270,361.5C 269.501,366.155 269.334,370.821 269.5,375.5C 268.509,368.687 268.175,361.687 268.5,354.5C 272.596,352.72 276.929,352.054 281.5,352.5 Z"/></g>
<g><path style="opacity:1" fill="#e4e5e4" d="M 311.5,352.5 C 317.93,351.604 323.764,352.937 329,356.5C 329.667,357.833 330.333,359.167 331,360.5C 331.667,379.5 331.667,398.5 331,417.5C 329.959,421.869 327.459,425.035 323.5,427C 319.179,427.499 314.846,427.666 310.5,427.5C 309.081,426.549 307.415,426.216 305.5,426.5C 305.325,424.379 305.659,422.379 306.5,420.5C 312.093,420.807 317.593,420.473 323,419.5C 324.544,400.195 324.877,380.862 324,361.5C 323.5,361 323,360.5 322.5,360C 316.843,359.501 311.176,359.334 305.5,359.5C 301.702,358.517 297.702,358.183 293.5,358.5C 293.5,356.5 293.5,354.5 293.5,352.5C 299.5,352.5 305.5,352.5 311.5,352.5 Z"/></g>
<g><path style="opacity:1" fill="#1f202e" d="M 268.5,354.5 C 268.175,361.687 268.509,368.687 269.5,375.5C 268.753,390.162 268.587,404.829 269,419.5C 271.381,420.435 273.881,420.768 276.5,420.5C 277.369,422.717 277.702,425.05 277.5,427.5C 270.1,428.883 264.934,426.216 262,419.5C 261.69,400.495 262.023,381.495 263,362.5C 263.611,358.93 265.444,356.263 268.5,354.5 Z"/></g>
<g><path style="opacity:1" fill="#99919b" d="M 191.5,356.5 C 191.5,357.167 191.833,357.5 192.5,357.5C 191.376,360.042 190.542,362.708 190,365.5C 189.5,366.667 188.667,367.5 187.5,368C 187.665,369.117 187.998,370.284 188.5,371.5C 187.306,375.455 185.972,379.288 184.5,383C 184.833,383.333 185.167,383.667 185.5,384C 182.906,391.908 179.906,399.908 176.5,408C 177.022,408.561 177.355,409.228 177.5,410C 176.528,412.111 175.695,414.278 175,416.5C 173.856,418.917 172.19,419.584 170,418.5C 168.698,419.085 167.531,419.751 166.5,420.5C 165.414,420.38 164.747,419.713 164.5,418.5C 170.628,397.912 176.462,377.245 182,356.5C 185.017,356.219 188.183,356.219 191.5,356.5 Z"/></g>
<g><path style="opacity:1" fill="#8c827d" d="M 441.5,420.5 C 441.611,419.883 441.944,419.383 442.5,419C 439.58,413.375 437.246,407.875 435.5,402.5C 436.002,401.284 436.335,400.117 436.5,399C 435.167,397 433.833,395 432.5,393C 432.957,392.586 433.291,392.086 433.5,391.5C 429.707,382.561 427.207,373.561 426,364.5C 425.25,363.874 424.416,363.374 423.5,363C 425.715,361.609 425.715,359.943 423.5,358C 419.514,357.501 415.514,357.334 411.5,357.5C 416.233,356.81 421.066,356.144 426,355.5C 432.174,376.526 438.674,397.526 445.5,418.5C 444.68,420.111 443.346,420.778 441.5,420.5 Z"/></g>
<g><path style="opacity:1" fill="#9c9393" d="M 192.5,357.5 C 193.167,357.5 193.833,357.5 194.5,357.5C 192.116,370.923 188.783,384.09 184.5,397C 184.848,399.055 184.181,401.055 182.5,403C 182.937,405.449 182.937,407.783 182.5,410C 180.733,413.804 179.067,417.637 177.5,421.5C 177.167,421.5 176.833,421.5 176.5,421.5C 173.098,421.658 169.764,421.324 166.5,420.5C 167.531,419.751 168.698,419.085 170,418.5C 172.19,419.584 173.856,418.917 175,416.5C 175.695,414.278 176.528,412.111 177.5,410C 177.355,409.228 177.022,408.561 176.5,408C 179.906,399.908 182.906,391.908 185.5,384C 185.167,383.667 184.833,383.333 184.5,383C 185.972,379.288 187.306,375.455 188.5,371.5C 187.998,370.284 187.665,369.117 187.5,368C 188.667,367.5 189.5,366.667 190,365.5C 190.542,362.708 191.376,360.042 192.5,357.5 Z"/></g>
<g><path style="opacity:1" fill="#958b95" d="M 194.5,357.5 C 197.073,357.148 199.406,357.648 201.5,359C 196.262,378.453 191.096,398.287 186,418.5C 185.395,420.481 184.395,420.815 183,419.5C 181.275,420.464 179.441,421.131 177.5,421.5C 179.067,417.637 180.733,413.804 182.5,410C 182.937,407.783 182.937,405.449 182.5,403C 184.181,401.055 184.848,399.055 184.5,397C 188.783,384.09 192.116,370.923 194.5,357.5 Z"/></g>
<g><path style="opacity:1" fill="#847b84" d="M 191.5,356.5 C 197.851,356.557 204.185,356.89 210.5,357.5C 208.647,367.455 206.314,377.289 203.5,387C 203.833,387.333 204.167,387.667 204.5,388C 203.043,393.11 201.377,398.11 199.5,403C 199.673,405.407 199.673,407.74 199.5,410C 198.472,413.779 197.139,417.445 195.5,421C 196.996,421.507 198.163,421.007 199,419.5C 199.862,417.913 200.529,416.246 201,414.5C 204.337,398.491 207.671,382.491 211,366.5C 211.139,363.555 212.306,361.221 214.5,359.5C 210.726,379.881 206.56,399.881 202,419.5C 201.097,420.701 199.931,421.535 198.5,422C 193.511,422.499 188.511,422.666 183.5,422.5C 180.941,422.802 178.607,422.468 176.5,421.5C 176.833,421.5 177.167,421.5 177.5,421.5C 179.441,421.131 181.275,420.464 183,419.5C 184.395,420.815 185.395,420.481 186,418.5C 191.096,398.287 196.262,378.453 201.5,359C 199.406,357.648 197.073,357.148 194.5,357.5C 193.833,357.5 193.167,357.5 192.5,357.5C 191.833,357.5 191.5,357.167 191.5,356.5 Z"/></g>
<g><path style="opacity:1" fill="#a39891" d="M 409.5,357.5 C 410.167,357.5 410.833,357.5 411.5,357.5C 415.514,357.334 419.514,357.501 423.5,358C 425.715,359.943 425.715,361.609 423.5,363C 424.416,363.374 425.25,363.874 426,364.5C 427.207,373.561 429.707,382.561 433.5,391.5C 433.291,392.086 432.957,392.586 432.5,393C 433.833,395 435.167,397 436.5,399C 436.335,400.117 436.002,401.284 435.5,402.5C 437.246,407.875 439.58,413.375 442.5,419C 441.944,419.383 441.611,419.883 441.5,420.5C 437.343,421.449 433.01,422.116 428.5,422.5C 428.918,421.778 429.584,421.278 430.5,421C 428.041,420.276 427.041,418.943 427.5,417C 426.299,416.097 425.465,414.931 425,413.5C 422.137,402.1 418.97,390.766 415.5,379.5C 415.709,378.914 416.043,378.414 416.5,378C 414.791,373.328 413.624,368.495 413,363.5C 412.576,360.975 411.41,358.975 409.5,357.5 Z"/></g>
<g><path style="opacity:1" fill="#7b7283" d="M 210.5,357.5 C 211.833,357.5 213.167,357.5 214.5,357.5C 215.506,358.396 215.506,359.062 214.5,359.5C 212.306,361.221 211.139,363.555 211,366.5C 207.671,382.491 204.337,398.491 201,414.5C 200.529,416.246 199.862,417.913 199,419.5C 198.163,421.007 196.996,421.507 195.5,421C 197.139,417.445 198.472,413.779 199.5,410C 199.673,407.74 199.673,405.407 199.5,403C 201.377,398.11 203.043,393.11 204.5,388C 204.167,387.667 203.833,387.333 203.5,387C 206.314,377.289 208.647,367.455 210.5,357.5 Z"/></g>
<g><path style="opacity:1" fill="#6b616f" d="M 214.5,357.5 C 218.842,357.739 223.176,358.073 227.5,358.5C 223.792,379.743 219.792,401.076 215.5,422.5C 216.833,422.5 218.167,422.5 219.5,422.5C 213.69,423.49 207.69,423.823 201.5,423.5C 195.31,423.823 189.31,423.49 183.5,422.5C 188.511,422.666 193.511,422.499 198.5,422C 199.931,421.535 201.097,420.701 202,419.5C 206.56,399.881 210.726,379.881 214.5,359.5C 215.506,359.062 215.506,358.396 214.5,357.5 Z"/></g>
<g><path style="opacity:1" fill="#595164" d="M 227.5,358.5 C 230.5,358.5 233.5,358.5 236.5,358.5C 235.835,361.441 234.835,364.608 233.5,368C 233.958,371.418 233.958,375.084 233.5,379C 232.237,380.705 231.903,382.372 232.5,384C 229.883,392.798 228.55,401.631 228.5,410.5C 226.496,412.706 226.163,414.872 227.5,417C 226.614,418.615 225.614,420.115 224.5,421.5C 222.958,422.301 221.292,422.634 219.5,422.5C 218.167,422.5 216.833,422.5 215.5,422.5C 219.792,401.076 223.792,379.743 227.5,358.5 Z"/></g>
<g><path style="opacity:1" fill="#4b425c" d="M 236.5,358.5 C 239.167,358.5 241.833,358.5 244.5,358.5C 247.305,359.319 250.305,359.819 253.5,360C 251.444,360.311 249.444,360.811 247.5,361.5C 245.461,363.742 243.795,366.242 242.5,369C 243.804,369.804 244.471,370.971 244.5,372.5C 243.693,377.692 243.693,383.026 244.5,388.5C 244.023,389.478 243.357,390.311 242.5,391C 244.394,392.101 245.061,393.434 244.5,395C 243.376,395.249 242.376,395.749 241.5,396.5C 242.64,400.738 242.64,404.904 241.5,409C 243.146,410.555 243.479,412.221 242.5,414C 244.583,415.32 244.249,416.654 241.5,418C 242.345,419.558 241.679,420.558 239.5,421C 236.204,421.457 233.037,422.291 230,423.5C 228.275,422.536 226.441,421.869 224.5,421.5C 225.614,420.115 226.614,418.615 227.5,417C 226.163,414.872 226.496,412.706 228.5,410.5C 228.55,401.631 229.883,392.798 232.5,384C 231.903,382.372 232.237,380.705 233.5,379C 233.958,375.084 233.958,371.418 233.5,368C 234.835,364.608 235.835,361.441 236.5,358.5 Z"/></g>
<g><path style="opacity:1" fill="#b0aea6" d="M 392.5,358.5 C 397.099,358.2 401.599,358.533 406,359.5C 408.461,370.766 411.294,381.933 414.5,393C 413.786,394.343 414.12,395.676 415.5,397C 415.167,397.333 414.833,397.667 414.5,398C 416.481,398.605 416.815,399.605 415.5,401C 417.252,406.43 419.252,411.763 421.5,417C 421.167,417.333 420.833,417.667 420.5,418C 422.389,419.764 424.389,421.264 426.5,422.5C 421.695,423.487 416.695,423.821 411.5,423.5C 409.565,422.19 407.565,420.857 405.5,419.5C 403.471,420.629 403.137,420.129 404.5,418C 401.833,417.333 401.833,416.667 404.5,416C 402.367,412.975 401.534,409.808 402,406.5C 400.933,405.057 399.766,403.724 398.5,402.5C 399.311,401.784 399.978,400.95 400.5,400C 399.833,398.667 399.167,397.333 398.5,396C 398.645,395.228 398.978,394.561 399.5,394C 398.283,392.352 397.45,390.519 397,388.5C 396.346,389.696 395.846,389.696 395.5,388.5C 396.025,387.808 396.692,387.308 397.5,387C 396.772,382.595 395.439,378.095 393.5,373.5C 394.859,371.694 394.525,370.194 392.5,369C 393.357,368.311 394.023,367.478 394.5,366.5C 393.194,365.088 392.36,363.421 392,361.5C 391.346,362.696 390.846,362.696 390.5,361.5C 391.193,360.482 391.859,359.482 392.5,358.5 Z"/></g>
<g><path style="opacity:1" fill="#a6a597" d="M 389.5,358.5 C 395.979,357.509 402.646,357.176 409.5,357.5C 411.41,358.975 412.576,360.975 413,363.5C 413.624,368.495 414.791,373.328 416.5,378C 416.043,378.414 415.709,378.914 415.5,379.5C 418.97,390.766 422.137,402.1 425,413.5C 425.465,414.931 426.299,416.097 427.5,417C 427.041,418.943 428.041,420.276 430.5,421C 429.584,421.278 428.918,421.778 428.5,422.5C 427.833,422.5 427.167,422.5 426.5,422.5C 424.389,421.264 422.389,419.764 420.5,418C 420.833,417.667 421.167,417.333 421.5,417C 419.252,411.763 417.252,406.43 415.5,401C 416.815,399.605 416.481,398.605 414.5,398C 414.833,397.667 415.167,397.333 415.5,397C 414.12,395.676 413.786,394.343 414.5,393C 411.294,381.933 408.461,370.766 406,359.5C 401.599,358.533 397.099,358.2 392.5,358.5C 391.5,358.5 390.5,358.5 389.5,358.5 Z"/></g>
<g><path style="opacity:1" fill="#474150" d="M 244.5,358.5 C 248.833,358.5 253.167,358.5 257.5,358.5C 256.831,380.53 256.831,402.53 257.5,424.5C 238.659,424.83 219.993,424.497 201.5,423.5C 207.69,423.823 213.69,423.49 219.5,422.5C 221.292,422.634 222.958,422.301 224.5,421.5C 226.441,421.869 228.275,422.536 230,423.5C 233.037,422.291 236.204,421.457 239.5,421C 241.679,420.558 242.345,419.558 241.5,418C 244.249,416.654 244.583,415.32 242.5,414C 243.479,412.221 243.146,410.555 241.5,409C 242.64,404.904 242.64,400.738 241.5,396.5C 242.376,395.749 243.376,395.249 244.5,395C 245.061,393.434 244.394,392.101 242.5,391C 243.357,390.311 244.023,389.478 244.5,388.5C 243.693,383.026 243.693,377.692 244.5,372.5C 244.471,370.971 243.804,369.804 242.5,369C 243.795,366.242 245.461,363.742 247.5,361.5C 249.444,360.811 251.444,360.311 253.5,360C 250.305,359.819 247.305,359.319 244.5,358.5 Z"/></g>
<g><path style="opacity:1" fill="#09090b" d="M 291.5,359.5 C 296.167,359.5 300.833,359.5 305.5,359.5C 311.176,359.334 316.843,359.501 322.5,360C 323,360.5 323.5,361 324,361.5C 324.877,380.862 324.544,400.195 323,419.5C 317.593,420.473 312.093,420.807 306.5,420.5C 301.833,420.5 297.167,420.5 292.5,420.5C 287.167,420.5 281.833,420.5 276.5,420.5C 273.881,420.768 271.381,420.435 269,419.5C 268.587,404.829 268.753,390.162 269.5,375.5C 269.334,370.821 269.501,366.155 270,361.5C 270.5,361 271,360.5 271.5,360C 278.158,359.5 284.825,359.334 291.5,359.5 Z"/></g>
<g><path style="opacity:1" fill="#b6b8b9" d="M 389.5,358.5 C 390.5,358.5 391.5,358.5 392.5,358.5C 391.859,359.482 391.193,360.482 390.5,361.5C 390.846,362.696 391.346,362.696 392,361.5C 392.36,363.421 393.194,365.088 394.5,366.5C 394.023,367.478 393.357,368.311 392.5,369C 394.525,370.194 394.859,371.694 393.5,373.5C 395.439,378.095 396.772,382.595 397.5,387C 396.692,387.308 396.025,387.808 395.5,388.5C 395.846,389.696 396.346,389.696 397,388.5C 397.45,390.519 398.283,392.352 399.5,394C 398.978,394.561 398.645,395.228 398.5,396C 399.167,397.333 399.833,398.667 400.5,400C 399.978,400.95 399.311,401.784 398.5,402.5C 399.766,403.724 400.933,405.057 402,406.5C 401.534,409.808 402.367,412.975 404.5,416C 401.833,416.667 401.833,417.333 404.5,418C 403.137,420.129 403.471,420.629 405.5,419.5C 407.565,420.857 409.565,422.19 411.5,423.5C 385.527,424.833 359.527,425.333 333.5,425C 334.126,424.25 334.626,423.416 335,422.5C 336.15,401.182 336.65,379.848 336.5,358.5C 354.167,358.5 371.833,358.5 389.5,358.5 Z"/></g>
<g><path style="opacity:1" fill="#737376" d="M 294.5,364.5 C 293.469,365.249 292.302,365.915 291,366.5C 288.753,374.357 288.253,382.191 289.5,390C 288.833,398 288.167,406 287.5,414C 292.823,414.499 298.156,414.666 303.5,414.5C 303.5,414.833 303.5,415.167 303.5,415.5C 293.5,415.5 283.5,415.5 273.5,415.5C 274.136,398.507 274.469,381.507 274.5,364.5C 281.167,364.5 287.833,364.5 294.5,364.5 Z"/></g>
<g><path style="opacity:1" fill="#8b8b8b" d="M 294.5,364.5 C 302.833,364.5 311.167,364.5 319.5,364.5C 319.827,374.348 319.494,384.014 318.5,393.5C 318.666,384.494 318.5,375.494 318,366.5C 316.262,365.873 314.429,365.54 312.5,365.5C 306.253,365.239 303.92,368.073 305.5,374C 303.65,375.845 303.317,377.845 304.5,380C 303.833,380.333 303.167,380.667 302.5,381C 302.587,384.463 302.587,387.963 302.5,391.5C 303.093,393.382 303.76,395.215 304.5,397C 303.76,398.785 303.093,400.618 302.5,402.5C 303.167,403.167 303.833,403.833 304.5,404.5C 303.617,405.548 302.95,406.715 302.5,408C 302.935,410.215 303.269,412.381 303.5,414.5C 298.156,414.666 292.823,414.499 287.5,414C 288.167,406 288.833,398 289.5,390C 288.253,382.191 288.753,374.357 291,366.5C 292.302,365.915 293.469,365.249 294.5,364.5 Z"/></g>
<g><path style="opacity:1" fill="#9b9aa0" d="M 318.5,393.5 C 318.5,400.833 318.5,408.167 318.5,415.5C 313.5,415.5 308.5,415.5 303.5,415.5C 303.5,415.167 303.5,414.833 303.5,414.5C 303.269,412.381 302.935,410.215 302.5,408C 302.95,406.715 303.617,405.548 304.5,404.5C 303.833,403.833 303.167,403.167 302.5,402.5C 303.093,400.618 303.76,398.785 304.5,397C 303.76,395.215 303.093,393.382 302.5,391.5C 302.587,387.963 302.587,384.463 302.5,381C 303.167,380.667 303.833,380.333 304.5,380C 303.317,377.845 303.65,375.845 305.5,374C 303.92,368.073 306.253,365.239 312.5,365.5C 314.429,365.54 316.262,365.873 318,366.5C 318.5,375.494 318.666,384.494 318.5,393.5 Z"/></g>
<g><path style="opacity:1" fill="#6d6d6e" d="M 276.5,420.5 C 281.833,420.5 287.167,420.5 292.5,420.5C 292.5,422.5 292.5,424.5 292.5,426.5C 293.791,426.263 294.791,426.596 295.5,427.5C 289.5,427.5 283.5,427.5 277.5,427.5C 277.702,425.05 277.369,422.717 276.5,420.5 Z"/></g>
<g><path style="opacity:1" fill="#b1a9b4" d="M 183.5,427.5 C 183.611,428.117 183.944,428.617 184.5,429C 181.264,430.786 177.93,432.286 174.5,433.5C 167.05,435.035 160.55,438.368 155,443.5C 154.667,443.167 154.333,442.833 154,442.5C 149.018,446.648 144.184,450.981 139.5,455.5C 138.675,456.386 137.675,456.719 136.5,456.5C 136.649,457.552 136.483,458.552 136,459.5C 134.636,458.742 133.469,459.242 132.5,461C 133.34,462.666 132.84,462.833 131,461.5C 125.914,464.775 120.581,468.442 115,472.5C 113.602,471.949 112.268,471.616 111,471.5C 110.612,472.428 109.945,473.095 109,473.5C 102.898,476.02 96.7312,478.353 90.5,480.5C 89.8076,479.975 89.3076,479.308 89,478.5C 84.5304,481.198 79.8637,483.531 75,485.5C 74.5357,484.906 74.369,484.239 74.5,483.5C 102.08,470.38 128.413,455.214 153.5,438C 158.354,433.81 163.187,429.643 168,425.5C 173.038,427.121 178.205,427.787 183.5,427.5 Z"/></g>
<g><path style="opacity:1" fill="#cdd1d3" d="M 292.5,420.5 C 297.167,420.5 301.833,420.5 306.5,420.5C 305.659,422.379 305.325,424.379 305.5,426.5C 307.415,426.216 309.081,426.549 310.5,427.5C 305.5,427.5 300.5,427.5 295.5,427.5C 294.791,426.596 293.791,426.263 292.5,426.5C 292.5,424.5 292.5,422.5 292.5,420.5 Z"/></g>
<g><path style="opacity:1" fill="#aaa8a1" d="M 450.5,433.5 C 435.321,433.461 420.321,433.461 405.5,433.5C 396.649,432.555 387.982,431.221 379.5,429.5C 398.177,428.948 416.844,428.115 435.5,427C 437.698,426.627 439.865,426.127 442,425.5C 445.321,427.654 448.154,430.321 450.5,433.5 Z"/></g>
<g><path style="opacity:1" fill="#a49ba8" d="M 183.5,427.5 C 188.473,428.164 193.473,428.497 198.5,428.5C 193.886,433.497 188.886,437.497 183.5,440.5C 182.5,442.167 181.167,443.5 179.5,444.5C 180.855,445.675 180.688,446.675 179,447.5C 178.195,445.099 177.362,445.266 176.5,448C 178.901,448.805 178.734,449.638 176,450.5C 175.667,450.167 175.333,449.833 175,449.5C 170.235,456.718 164.235,463.385 157,469.5C 156.667,469.167 156.333,468.833 156,468.5C 148.474,473.887 141.641,479.387 135.5,485C 131.861,484.572 129.028,486.072 127,489.5C 123.667,489.42 120.834,490.92 118.5,494C 119.791,496.09 119.124,497.424 116.5,498C 117.071,499.205 117.738,500.372 118.5,501.5C 122.195,503.732 126.195,505.232 130.5,506C 131.191,507.067 131.691,508.234 132,509.5C 132.654,508.304 133.154,508.304 133.5,509.5C 131.887,510.427 130.221,511.261 128.5,512C 128.728,512.399 129.062,512.565 129.5,512.5C 127.708,513.309 125.708,513.809 123.5,514C 126.146,514.497 128.813,514.664 131.5,514.5C 130.843,515.316 129.51,515.983 127.5,516.5C 118.792,516.672 110.125,517.339 101.5,518.5C 97.8333,518.5 94.1667,518.5 90.5,518.5C 95.2261,516.637 99.8927,514.471 104.5,512C 100.846,509.727 96.8464,508.561 92.5,508.5C 90.1234,507.113 87.4568,506.279 84.5,506C 83.3128,504.981 82.3128,503.814 81.5,502.5C 83.2773,501.099 84.944,499.599 86.5,498C 86.1667,497.667 85.8333,497.333 85.5,497C 115.738,483.431 142.071,464.431 164.5,440C 168.029,437.94 171.363,435.773 174.5,433.5C 177.93,432.286 181.264,430.786 184.5,429C 183.944,428.617 183.611,428.117 183.5,427.5 Z"/></g>
<g><path style="opacity:1" fill="#939ba6" d="M 198.5,428.5 C 199.167,428.5 199.833,428.5 200.5,428.5C 201.303,429.423 201.47,430.423 201,431.5C 195.014,436.127 191.014,442.127 189,449.5C 184.615,454.55 180.615,459.884 177,465.5C 164.929,476.87 152.263,487.536 139,497.5C 138.333,496.167 137.667,496.167 137,497.5C 136.833,498.333 136.667,499.167 136.5,500C 138.548,502.533 139.881,505.366 140.5,508.5C 137.757,510.439 134.09,511.772 129.5,512.5C 129.062,512.565 128.728,512.399 128.5,512C 130.221,511.261 131.887,510.427 133.5,509.5C 133.154,508.304 132.654,508.304 132,509.5C 131.691,508.234 131.191,507.067 130.5,506C 126.195,505.232 122.195,503.732 118.5,501.5C 117.738,500.372 117.071,499.205 116.5,498C 119.124,497.424 119.791,496.09 118.5,494C 120.834,490.92 123.667,489.42 127,489.5C 129.028,486.072 131.861,484.572 135.5,485C 141.641,479.387 148.474,473.887 156,468.5C 156.333,468.833 156.667,469.167 157,469.5C 164.235,463.385 170.235,456.718 175,449.5C 175.333,449.833 175.667,450.167 176,450.5C 178.734,449.638 178.901,448.805 176.5,448C 177.362,445.266 178.195,445.099 179,447.5C 180.688,446.675 180.855,445.675 179.5,444.5C 181.167,443.5 182.5,442.167 183.5,440.5C 188.886,437.497 193.886,433.497 198.5,428.5 Z"/></g>
<g><path style="opacity:1" fill="#7e8aa8" d="M 200.5,428.5 C 205.695,428.179 210.695,428.513 215.5,429.5C 215.854,431.839 215.187,434.006 213.5,436C 214.091,439.515 214.091,442.849 213.5,446C 214.293,447.085 214.96,448.252 215.5,449.5C 214.218,451.179 213.218,453.013 212.5,455C 212.112,456.525 212.112,458.192 212.5,460C 211.584,460.374 210.75,460.874 210,461.5C 207.69,466.124 205.023,470.457 202,474.5C 201.544,475.744 202.044,476.577 203.5,477C 200.537,480.164 197.87,482.664 195.5,484.5C 195.33,485.822 195.663,486.989 196.5,488C 195.5,488.333 194.5,488.667 193.5,489C 194.451,489.718 194.617,490.551 194,491.5C 193.282,490.549 192.449,490.383 191.5,491C 185.617,496.093 179.951,501.427 174.5,507C 166.12,509.243 157.786,511.077 149.5,512.5C 143.274,512.388 137.274,513.054 131.5,514.5C 128.813,514.664 126.146,514.497 123.5,514C 125.708,513.809 127.708,513.309 129.5,512.5C 134.09,511.772 137.757,510.439 140.5,508.5C 139.881,505.366 138.548,502.533 136.5,500C 136.667,499.167 136.833,498.333 137,497.5C 137.667,496.167 138.333,496.167 139,497.5C 152.263,487.536 164.929,476.87 177,465.5C 180.615,459.884 184.615,454.55 189,449.5C 191.014,442.127 195.014,436.127 201,431.5C 201.47,430.423 201.303,429.423 200.5,428.5 Z"/></g>
<g><path style="opacity:1" fill="#7277a7" d="M 215.5,429.5 C 222.5,429.5 229.5,429.5 236.5,429.5C 234.887,434.158 235.554,438.492 238.5,442.5C 242.567,445.699 245.9,449.532 248.5,454C 248.615,456.496 248.615,459.496 248.5,463C 248.905,463.945 249.572,464.612 250.5,465C 250.167,465.333 249.833,465.667 249.5,466C 252.724,467.133 253.057,469.133 250.5,472C 251.664,475.887 251.33,479.72 249.5,483.5C 248.575,484.641 247.741,484.641 247,483.5C 247.017,485.568 248.017,487.234 250,488.5C 250.249,487.376 250.749,486.376 251.5,485.5C 251.833,485.667 252.167,485.833 252.5,486C 252.507,487.583 252.174,489.249 251.5,491C 253.333,491.5 254.5,492.667 255,494.5C 255.333,494.167 255.667,493.833 256,493.5C 256.625,496.706 258.291,497.706 261,496.5C 261.667,497.833 262.667,498.833 264,499.5C 267.128,499.316 270.294,499.316 273.5,499.5C 274.23,500.712 275.23,501.712 276.5,502.5C 275.349,503.731 274.183,503.731 273,502.5C 271.173,504.154 269.34,504.988 267.5,505C 258.358,506.037 249.358,506.871 240.5,507.5C 240.167,507.5 239.833,507.5 239.5,507.5C 209.479,508.835 179.479,510.502 149.5,512.5C 157.786,511.077 166.12,509.243 174.5,507C 179.951,501.427 185.617,496.093 191.5,491C 192.449,490.383 193.282,490.549 194,491.5C 194.617,490.551 194.451,489.718 193.5,489C 194.5,488.667 195.5,488.333 196.5,488C 195.663,486.989 195.33,485.822 195.5,484.5C 197.87,482.664 200.537,480.164 203.5,477C 202.044,476.577 201.544,475.744 202,474.5C 205.023,470.457 207.69,466.124 210,461.5C 210.75,460.874 211.584,460.374 212.5,460C 212.112,458.192 212.112,456.525 212.5,455C 213.218,453.013 214.218,451.179 215.5,449.5C 214.96,448.252 214.293,447.085 213.5,446C 214.091,442.849 214.091,439.515 213.5,436C 215.187,434.006 215.854,431.839 215.5,429.5 Z"/></g>
<g><path style="opacity:1" fill="#646a96" d="M 236.5,429.5 C 245.99,430.024 255.324,430.691 264.5,431.5C 263.624,431.369 262.957,431.702 262.5,432.5C 263.189,434.444 263.689,436.444 264,438.5C 264.333,438.167 264.667,437.833 265,437.5C 265.667,438.833 266.333,440.167 267,441.5C 268.507,440.465 270.007,440.632 271.5,442C 274.189,445.981 277.522,448.147 281.5,448.5C 281.489,450.017 280.823,451.184 279.5,452C 281.789,453.688 283.123,455.521 283.5,457.5C 280.972,458.517 280.972,459.684 283.5,461C 282.576,461.85 282.576,462.85 283.5,464C 283.333,464.5 283.167,465 283,465.5C 281.16,464.167 280.66,464.334 281.5,466C 280,468.167 278.833,468 278,465.5C 277.5,466 277,466.5 276.5,467C 277.701,467.903 278.535,469.069 279,470.5C 279.914,469.346 280.747,469.513 281.5,471C 280.421,471.956 279.255,472.789 278,473.5C 277.508,474.549 277.674,475.549 278.5,476.5C 275.924,477.883 276.258,478.717 279.5,479C 276.05,480.409 274.55,482.909 275,486.5C 275.333,486.167 275.667,485.833 276,485.5C 276.483,486.448 276.649,487.448 276.5,488.5C 280.317,487.826 283.15,489.159 285,492.5C 286.943,490.285 288.609,490.285 290,492.5C 290.333,491.833 290.667,491.167 291,490.5C 291.417,491.756 292.25,492.423 293.5,492.5C 294.231,492.942 295.231,493.109 296.5,493C 296.93,493.92 297.264,494.753 297.5,495.5C 299.106,495.519 300.772,495.353 302.5,495C 301.619,495.708 300.953,496.542 300.5,497.5C 294.743,498.658 289.243,498.658 284,497.5C 280.572,498.396 277.072,499.062 273.5,499.5C 270.294,499.316 267.128,499.316 264,499.5C 262.667,498.833 261.667,497.833 261,496.5C 258.291,497.706 256.625,496.706 256,493.5C 255.667,493.833 255.333,494.167 255,494.5C 254.5,492.667 253.333,491.5 251.5,491C 252.174,489.249 252.507,487.583 252.5,486C 252.167,485.833 251.833,485.667 251.5,485.5C 250.749,486.376 250.249,487.376 250,488.5C 248.017,487.234 247.017,485.568 247,483.5C 247.741,484.641 248.575,484.641 249.5,483.5C 251.33,479.72 251.664,475.887 250.5,472C 253.057,469.133 252.724,467.133 249.5,466C 249.833,465.667 250.167,465.333 250.5,465C 249.572,464.612 248.905,463.945 248.5,463C 248.615,459.496 248.615,456.496 248.5,454C 245.9,449.532 242.567,445.699 238.5,442.5C 235.554,438.492 234.887,434.158 236.5,429.5 Z"/></g>
<g><path style="opacity:1" fill="#8f8e8e" d="M 379.5,429.5 C 387.982,431.221 396.649,432.555 405.5,433.5C 420.321,433.461 435.321,433.461 450.5,433.5C 486.168,458.336 524.168,479.003 564.5,495.5C 562.805,499.349 560.972,499.349 559,495.5C 558.667,495.833 558.333,496.167 558,496.5C 547.441,491.926 536.941,487.26 526.5,482.5C 525.833,482.833 525.167,483.167 524.5,483.5C 521.844,480.934 519.344,478.934 517,477.5C 516.667,478.167 516.333,478.833 516,479.5C 512.337,477.177 508.17,474.511 503.5,471.5C 502.035,472.609 501.035,472.109 500.5,470C 498.038,468.706 495.705,467.206 493.5,465.5C 492.188,466.46 490.854,466.294 489.5,465C 486.344,462.843 483.511,460.343 481,457.5C 480.08,457.93 479.247,458.264 478.5,458.5C 486.061,465.743 494.728,471.243 504.5,475C 504.167,475.333 503.833,475.667 503.5,476C 504.76,477.113 505.927,477.28 507,476.5C 514.962,481.643 522.962,486.643 531,491.5C 531.414,491.043 531.914,490.709 532.5,490.5C 534.809,491.975 536.976,493.642 539,495.5C 540.333,495.5 541.667,495.5 543,495.5C 546.733,499.307 551.233,501.807 556.5,503C 559.866,505.171 562.199,507.671 563.5,510.5C 562.359,511.425 562.359,512.259 563.5,513C 561.568,514.459 559.568,515.625 557.5,516.5C 556.85,516.196 556.183,515.863 555.5,515.5C 553.191,516.651 551.024,517.984 549,519.5C 547.635,518.544 546.135,517.878 544.5,517.5C 536.109,519.444 527.775,520.111 519.5,519.5C 519.631,518.624 519.298,517.957 518.5,517.5C 517.554,517.987 516.554,518.32 515.5,518.5C 509.967,516.853 504.3,515.853 498.5,515.5C 497.446,515.68 496.446,516.013 495.5,516.5C 482.039,514.317 468.705,512.651 455.5,511.5C 456.793,510.842 458.293,510.508 460,510.5C 471.157,511.684 482.323,512.684 493.5,513.5C 497.337,514.134 501.17,514.801 505,515.5C 505.333,515.167 505.667,514.833 506,514.5C 515,515.167 524,515.833 533,516.5C 537.165,515.481 541.165,514.148 545,512.5C 546.131,513.604 546.965,513.271 547.5,511.5C 546.975,510.808 546.308,510.308 545.5,510C 547.135,509.46 548.468,509.96 549.5,511.5C 549.296,510.471 549.796,509.471 551,508.5C 552.642,509.846 553.309,509.513 553,507.5C 548.583,503.857 543.75,500.857 538.5,498.5C 537.481,499.687 536.314,500.687 535,501.5C 533.71,499.208 532.043,497.208 530,495.5C 529.043,497.709 527.876,497.543 526.5,495C 528.929,494.549 529.096,493.715 527,492.5C 526.085,493.328 525.419,494.328 525,495.5C 522.84,493.837 520.673,492.17 518.5,490.5C 517.833,490.833 517.167,491.167 516.5,491.5C 512.942,489.981 510.109,487.648 508,484.5C 507.333,485.167 506.667,485.833 506,486.5C 501.119,483.961 496.785,480.628 493,476.5C 492.667,477.167 492.333,477.833 492,478.5C 488.592,475.417 484.925,472.751 481,470.5C 480.282,471.451 479.449,471.617 478.5,471C 475.978,468.644 473.312,466.477 470.5,464.5C 470.089,465.262 469.923,466.262 470,467.5C 468.961,466.29 467.794,465.29 466.5,464.5C 466.217,463.711 465.717,463.044 465,462.5C 463.175,463.571 462.008,462.904 461.5,460.5C 462.167,459.833 462.833,459.167 463.5,458.5C 458.516,456.686 454.182,453.852 450.5,450C 449.167,449.667 447.833,449.333 446.5,449C 445.167,448.333 445.167,447.667 446.5,447C 431.989,440.802 416.656,437.969 400.5,438.5C 394.152,438.255 387.319,437.255 380,435.5C 375.804,435.99 371.471,435.99 367,435.5C 361.918,434.174 356.752,433.174 351.5,432.5C 342.189,432.169 333.189,432.169 324.5,432.5C 325.263,431.732 326.263,431.232 327.5,431C 344.846,430.712 362.179,430.212 379.5,429.5 Z"/></g>
<g><path style="opacity:1" fill="#6f7081" d="M 266.5,432.5 C 283.833,432.5 301.167,432.5 318.5,432.5C 317.737,433.268 316.737,433.768 315.5,434C 318.047,435.169 320.38,435.669 322.5,435.5C 327.2,437.869 330.533,441.536 332.5,446.5C 331.718,448.329 332.384,449.829 334.5,451C 333.944,451.383 333.611,451.883 333.5,452.5C 332.811,453.774 331.977,453.774 331,452.5C 329.513,453.253 329.346,454.086 330.5,455C 328.729,457.113 327.229,456.947 326,454.5C 324.211,458.982 321.545,459.649 318,456.5C 317.612,457.428 316.945,458.095 316,458.5C 313.191,456.691 310.691,454.524 308.5,452C 307.167,451.667 305.833,451.333 304.5,451C 306.742,449.993 306.408,449.159 303.5,448.5C 305.429,448.557 308.095,447.891 311.5,446.5C 312.478,446.977 313.311,447.643 314,448.5C 315.167,447 316.333,445.5 317.5,444C 315.448,442.188 313.115,440.855 310.5,440C 311.925,438.638 312.758,437.138 313,435.5C 312.667,435.833 312.333,436.167 312,436.5C 296.791,434.488 281.624,433.155 266.5,432.5 Z"/></g>
<g><path style="opacity:1" fill="#666983" d="M 264.5,431.5 C 265.492,431.328 266.158,431.662 266.5,432.5C 281.624,433.155 296.791,434.488 312,436.5C 312.333,436.167 312.667,435.833 313,435.5C 312.758,437.138 311.925,438.638 310.5,440C 313.115,440.855 315.448,442.188 317.5,444C 316.333,445.5 315.167,447 314,448.5C 313.311,447.643 312.478,446.977 311.5,446.5C 308.095,447.891 305.429,448.557 303.5,448.5C 303.5,449.167 303.5,449.833 303.5,450.5C 301.72,448.864 300.053,448.697 298.5,450C 302.223,450.434 302.39,451.268 299,452.5C 296.845,451.421 294.845,450.087 293,448.5C 292.333,449.167 291.667,449.833 291,450.5C 290.174,448.595 289.007,448.261 287.5,449.5C 287.977,450.478 288.643,451.311 289.5,452C 286.883,451.42 284.716,449.92 283,447.5C 282.617,448.056 282.117,448.389 281.5,448.5C 277.522,448.147 274.189,445.981 271.5,442C 270.007,440.632 268.507,440.465 267,441.5C 266.333,440.167 265.667,438.833 265,437.5C 264.667,437.833 264.333,438.167 264,438.5C 263.689,436.444 263.189,434.444 262.5,432.5C 262.957,431.702 263.624,431.369 264.5,431.5 Z"/></g>
<g><path style="opacity:1" fill="#a9acb2" d="M 174.5,433.5 C 171.363,435.773 168.029,437.94 164.5,440C 142.071,464.431 115.738,483.431 85.5,497C 85.8333,497.333 86.1667,497.667 86.5,498C 84.944,499.599 83.2773,501.099 81.5,502.5C 82.3128,503.814 83.3128,504.981 84.5,506C 87.4568,506.279 90.1234,507.113 92.5,508.5C 83.5389,508.218 74.7055,508.218 66,508.5C 63.0558,507.743 60.0558,507.077 57,506.5C 53.8468,507.333 51.1802,506.333 49,503.5C 44.6983,502.424 44.5316,500.258 48.5,497C 47.9056,496.536 47.2389,496.369 46.5,496.5C 55.6254,491.788 64.9587,487.455 74.5,483.5C 74.369,484.239 74.5357,484.906 75,485.5C 79.8637,483.531 84.5304,481.198 89,478.5C 89.3076,479.308 89.8076,479.975 90.5,480.5C 96.7312,478.353 102.898,476.02 109,473.5C 109.945,473.095 110.612,472.428 111,471.5C 112.268,471.616 113.602,471.949 115,472.5C 120.581,468.442 125.914,464.775 131,461.5C 132.84,462.833 133.34,462.666 132.5,461C 133.469,459.242 134.636,458.742 136,459.5C 136.483,458.552 136.649,457.552 136.5,456.5C 137.675,456.719 138.675,456.386 139.5,455.5C 144.184,450.981 149.018,446.648 154,442.5C 154.333,442.833 154.667,443.167 155,443.5C 160.55,438.368 167.05,435.035 174.5,433.5 Z"/></g>
<g><path style="opacity:1" fill="#7a7a8b" d="M 322.5,435.5 C 328.292,436.781 333.792,436.781 339,435.5C 342.251,436.293 345.251,437.626 348,439.5C 348.333,439.167 348.667,438.833 349,438.5C 350.884,439.977 352.884,441.31 355,442.5C 357.333,443.833 359.667,443.833 362,442.5C 362.333,443.167 362.667,443.833 363,444.5C 364.101,442.606 365.434,441.939 367,442.5C 367.309,443.766 367.809,444.933 368.5,446C 366.101,445.784 364.101,446.951 362.5,449.5C 363.476,451.123 362.976,452.457 361,453.5C 359.497,453.165 358.164,453.165 357,453.5C 356.667,454.5 356.333,455.5 356,456.5C 355.667,456.167 355.333,455.833 355,455.5C 354.626,456.416 354.126,457.25 353.5,458C 355.917,459.673 355.917,461.506 353.5,463.5C 355.611,464.605 356.945,466.271 357.5,468.5C 356.041,468.567 354.708,468.234 353.5,467.5C 352.417,467.539 351.417,467.873 350.5,468.5C 349.289,467.726 349.289,466.893 350.5,466C 348.892,465.342 347.725,465.842 347,467.5C 345.548,466.093 345.715,464.593 347.5,463C 347,462.5 346.5,462 346,461.5C 345.751,462.624 345.251,463.624 344.5,464.5C 344.167,464.333 343.833,464.167 343.5,464C 340.172,460.865 337.172,457.532 334.5,454C 336.932,452.913 336.598,452.413 333.5,452.5C 333.611,451.883 333.944,451.383 334.5,451C 332.384,449.829 331.718,448.329 332.5,446.5C 330.533,441.536 327.2,437.869 322.5,435.5 Z"/></g>
<g><path style="opacity:1" fill="#868382" d="M 400.5,438.5 C 416.656,437.969 431.989,440.802 446.5,447C 445.167,447.667 445.167,448.333 446.5,449C 447.833,449.333 449.167,449.667 450.5,450C 454.182,453.852 458.516,456.686 463.5,458.5C 462.833,459.167 462.167,459.833 461.5,460.5C 462.008,462.904 463.175,463.571 465,462.5C 465.717,463.044 466.217,463.711 466.5,464.5C 465.711,464.783 465.044,465.283 464.5,466C 469.634,469.006 469.301,470.506 463.5,470.5C 464.838,471.682 466.504,472.349 468.5,472.5C 468.414,473.496 468.748,474.329 469.5,475C 468.833,475.333 468.167,475.667 467.5,476C 468.953,478.114 470.953,479.448 473.5,480C 472.377,481.044 471.044,481.71 469.5,482C 472.009,483.518 473.676,485.685 474.5,488.5C 473.078,488.291 471.745,487.791 470.5,487C 466.946,483.446 463.446,479.946 460,476.5C 459.586,476.957 459.086,477.291 458.5,477.5C 455.719,475.592 452.719,474.092 449.5,473C 449.957,472.586 450.291,472.086 450.5,471.5C 448.61,470.576 447.11,469.243 446,467.5C 445.667,467.833 445.333,468.167 445,468.5C 444.707,465.046 443.374,464.712 441,467.5C 436.191,460.402 430.525,454.735 424,450.5C 423.282,451.451 422.449,451.617 421.5,451C 422.451,450.282 422.617,449.449 422,448.5C 421,449.167 420,449.833 419,450.5C 417.185,448.595 415.185,446.928 413,445.5C 411.887,446.305 410.721,446.972 409.5,447.5C 409.063,445.926 408.063,444.759 406.5,444C 402.247,443.8 398.08,443.3 394,442.5C 392.518,444.781 390.851,444.781 389,442.5C 387.434,441.939 386.101,442.606 385,444.5C 383.667,441.833 382.333,441.833 381,444.5C 379.312,443.675 379.145,442.675 380.5,441.5C 381.991,440.756 383.491,440.09 385,439.5C 385.333,439.833 385.667,440.167 386,440.5C 390.934,439.856 395.767,439.19 400.5,438.5 Z"/></g>
<g><path style="opacity:1" fill="#7c7c85" d="M 400.5,438.5 C 395.767,439.19 390.934,439.856 386,440.5C 385.667,440.167 385.333,439.833 385,439.5C 383.491,440.09 381.991,440.756 380.5,441.5C 379.145,442.675 379.312,443.675 381,444.5C 382.333,441.833 383.667,441.833 385,444.5C 386.101,442.606 387.434,441.939 389,442.5C 390.851,444.781 392.518,444.781 394,442.5C 398.08,443.3 402.247,443.8 406.5,444C 408.063,444.759 409.063,445.926 409.5,447.5C 412.849,449.038 416.182,450.871 419.5,453C 424.806,457.639 430.14,462.972 435.5,469C 436.833,469.333 438.167,469.667 439.5,470C 438.833,470.333 438.167,470.667 437.5,471C 440.936,472.098 443.603,473.765 445.5,476C 444.167,477.84 444.334,478.34 446,477.5C 446.5,479.333 447.667,480.5 449.5,481C 448.833,481.333 448.167,481.667 447.5,482C 453.342,488.842 459.842,495.009 467,500.5C 467.333,499.833 467.667,499.167 468,498.5C 468.381,501.041 469.214,503.374 470.5,505.5C 470.263,508.063 469.763,508.063 469,505.5C 468.623,506.942 467.79,507.942 466.5,508.5C 453.78,508.101 441.113,507.101 428.5,505.5C 423.661,504.566 418.661,503.732 413.5,503C 420.414,502.814 427.247,502.314 434,501.5C 436.134,502.305 437.967,501.638 439.5,499.5C 438.675,498.614 437.675,498.281 436.5,498.5C 436.548,495.708 435.215,493.875 432.5,493C 432.833,492.667 433.167,492.333 433.5,492C 432.095,490.731 430.429,490.231 428.5,490.5C 428.719,489.325 428.386,488.325 427.5,487.5C 422.996,483.819 418.83,479.819 415,475.5C 414.935,473.117 414.102,472.45 412.5,473.5C 410.497,471.867 409.164,469.867 408.5,467.5C 406.416,466.752 404.416,466.752 402.5,467.5C 401.327,464.721 399.493,464.054 397,465.5C 396.247,462.173 394.747,462.173 392.5,465.5C 391.289,464.726 391.289,463.893 392.5,463C 390.892,462.342 389.725,462.842 389,464.5C 388.311,463.643 387.478,462.977 386.5,462.5C 385.167,463.5 383.833,464.5 382.5,465.5C 381.914,465.291 381.414,464.957 381,464.5C 380.581,465.672 379.915,466.672 379,467.5C 378.383,466.551 378.549,465.718 379.5,465C 377.094,464.221 375.427,465.054 374.5,467.5C 373.5,466.833 372.5,466.167 371.5,465.5C 369.506,467.917 367.673,467.917 366,465.5C 363.037,467.111 360.204,468.111 357.5,468.5C 356.945,466.271 355.611,464.605 353.5,463.5C 355.917,461.506 355.917,459.673 353.5,458C 354.126,457.25 354.626,456.416 355,455.5C 355.333,455.833 355.667,456.167 356,456.5C 356.333,455.5 356.667,454.5 357,453.5C 358.164,453.165 359.497,453.165 361,453.5C 362.976,452.457 363.476,451.123 362.5,449.5C 364.101,446.951 366.101,445.784 368.5,446C 367.809,444.933 367.309,443.766 367,442.5C 365.434,441.939 364.101,442.606 363,444.5C 362.667,443.833 362.333,443.167 362,442.5C 359.667,443.833 357.333,443.833 355,442.5C 352.884,441.31 350.884,439.977 349,438.5C 348.667,438.833 348.333,439.167 348,439.5C 345.251,437.626 342.251,436.293 339,435.5C 333.792,436.781 328.292,436.781 322.5,435.5C 320.38,435.669 318.047,435.169 315.5,434C 316.737,433.768 317.737,433.268 318.5,432.5C 320.5,432.5 322.5,432.5 324.5,432.5C 333.189,432.169 342.189,432.169 351.5,432.5C 356.752,433.174 361.918,434.174 367,435.5C 371.471,435.99 375.804,435.99 380,435.5C 387.319,437.255 394.152,438.255 400.5,438.5 Z"/></g>
<g><path style="opacity:1" fill="#847b84" d="M 474.5,488.5 C 474.944,490.113 475.944,491.28 477.5,492C 476.833,492.667 476.167,493.333 475.5,494C 478.295,495.793 480.795,497.96 483,500.5C 483.333,500.167 483.667,499.833 484,499.5C 485.587,502.756 488.087,504.923 491.5,506C 491.167,506.333 490.833,506.667 490.5,507C 494.095,506.387 494.429,507.554 491.5,510.5C 484.641,509.452 478.141,509.452 472,510.5C 470.052,509.891 468.218,509.224 466.5,508.5C 467.79,507.942 468.623,506.942 469,505.5C 469.763,508.063 470.263,508.063 470.5,505.5C 469.214,503.374 468.381,501.041 468,498.5C 467.667,499.167 467.333,499.833 467,500.5C 459.842,495.009 453.342,488.842 447.5,482C 448.167,481.667 448.833,481.333 449.5,481C 447.667,480.5 446.5,479.333 446,477.5C 444.334,478.34 444.167,477.84 445.5,476C 443.603,473.765 440.936,472.098 437.5,471C 438.167,470.667 438.833,470.333 439.5,470C 438.167,469.667 436.833,469.333 435.5,469C 430.14,462.972 424.806,457.639 419.5,453C 416.182,450.871 412.849,449.038 409.5,447.5C 410.721,446.972 411.887,446.305 413,445.5C 415.185,446.928 417.185,448.595 419,450.5C 420,449.833 421,449.167 422,448.5C 422.617,449.449 422.451,450.282 421.5,451C 422.449,451.617 423.282,451.451 424,450.5C 430.525,454.735 436.191,460.402 441,467.5C 443.374,464.712 444.707,465.046 445,468.5C 445.333,468.167 445.667,467.833 446,467.5C 447.11,469.243 448.61,470.576 450.5,471.5C 450.291,472.086 449.957,472.586 449.5,473C 452.719,474.092 455.719,475.592 458.5,477.5C 459.086,477.291 459.586,476.957 460,476.5C 463.446,479.946 466.946,483.446 470.5,487C 471.745,487.791 473.078,488.291 474.5,488.5 Z"/></g>
<g><path style="opacity:1" fill="#746b8d" d="M 303.5,450.5 C 303.859,452.371 304.859,453.871 306.5,455C 305.272,457.14 303.605,458.807 301.5,460C 304.258,462.402 303.925,464.402 300.5,466C 301.604,467.131 301.271,467.965 299.5,468.5C 298.833,467.5 298.167,466.5 297.5,465.5C 296.653,467.061 296.986,468.561 298.5,470C 297.5,470.333 296.5,470.667 295.5,471C 296.833,471.667 296.833,472.333 295.5,473C 296.624,473.249 297.624,473.749 298.5,474.5C 298.333,474.833 298.167,475.167 298,475.5C 296.57,475.306 295.07,475.306 293.5,475.5C 295.271,476.988 296.604,478.821 297.5,481C 296.833,481.667 296.167,481.667 295.5,481C 295.07,480.08 294.736,479.247 294.5,478.5C 291.774,479.666 290.607,481.666 291,484.5C 292.544,481.736 293.711,481.903 294.5,485C 292.998,485.583 291.665,486.416 290.5,487.5C 291.952,488.94 292.952,490.606 293.5,492.5C 292.25,492.423 291.417,491.756 291,490.5C 290.667,491.167 290.333,491.833 290,492.5C 288.609,490.285 286.943,490.285 285,492.5C 283.15,489.159 280.317,487.826 276.5,488.5C 276.649,487.448 276.483,486.448 276,485.5C 275.667,485.833 275.333,486.167 275,486.5C 274.55,482.909 276.05,480.409 279.5,479C 276.258,478.717 275.924,477.883 278.5,476.5C 277.674,475.549 277.508,474.549 278,473.5C 279.255,472.789 280.421,471.956 281.5,471C 280.747,469.513 279.914,469.346 279,470.5C 278.535,469.069 277.701,467.903 276.5,467C 277,466.5 277.5,466 278,465.5C 278.833,468 280,468.167 281.5,466C 280.66,464.334 281.16,464.167 283,465.5C 283.167,465 283.333,464.5 283.5,464C 282.576,462.85 282.576,461.85 283.5,461C 280.972,459.684 280.972,458.517 283.5,457.5C 283.123,455.521 281.789,453.688 279.5,452C 280.823,451.184 281.489,450.017 281.5,448.5C 282.117,448.389 282.617,448.056 283,447.5C 284.716,449.92 286.883,451.42 289.5,452C 288.643,451.311 287.977,450.478 287.5,449.5C 289.007,448.261 290.174,448.595 291,450.5C 291.667,449.833 292.333,449.167 293,448.5C 294.845,450.087 296.845,451.421 299,452.5C 302.39,451.268 302.223,450.434 298.5,450C 300.053,448.697 301.72,448.864 303.5,450.5 Z"/></g>
<g><path style="opacity:1" fill="#73728c" d="M 303.5,448.5 C 306.408,449.159 306.742,449.993 304.5,451C 305.833,451.333 307.167,451.667 308.5,452C 310.691,454.524 313.191,456.691 316,458.5C 316.945,458.095 317.612,457.428 318,456.5C 321.545,459.649 324.211,458.982 326,454.5C 327.229,456.947 328.729,457.113 330.5,455C 329.346,454.086 329.513,453.253 331,452.5C 331.977,453.774 332.811,453.774 333.5,452.5C 336.598,452.413 336.932,452.913 334.5,454C 337.172,457.532 340.172,460.865 343.5,464C 343.833,464.167 344.167,464.333 344.5,464.5C 345.251,463.624 345.751,462.624 346,461.5C 346.5,462 347,462.5 347.5,463C 345.715,464.593 345.548,466.093 347,467.5C 347.725,465.842 348.892,465.342 350.5,466C 349.289,466.893 349.289,467.726 350.5,468.5C 351.417,467.873 352.417,467.539 353.5,467.5C 353.5,468.5 353.5,469.5 353.5,470.5C 354.5,470.5 355.5,470.5 356.5,470.5C 356.826,472.661 357.826,474.494 359.5,476C 358.643,476.689 357.977,477.522 357.5,478.5C 358.973,480.395 360.64,482.061 362.5,483.5C 361.5,484.167 360.5,484.833 359.5,485.5C 359.846,486.696 360.346,486.696 361,485.5C 361.199,487.402 362.033,488.902 363.5,490C 363.167,490.333 362.833,490.667 362.5,491C 363.191,492.067 363.691,493.234 364,494.5C 364.333,494.167 364.667,493.833 365,493.5C 366.044,494.623 366.71,495.956 367,497.5C 367.333,496.833 367.667,496.167 368,495.5C 369.46,497.422 371.127,498.089 373,497.5C 377.037,498.793 381.204,499.626 385.5,500C 374.198,500.456 363.198,500.622 352.5,500.5C 342.621,499.712 333.121,499.712 324,500.5C 318.667,499.833 313.333,499.167 308,498.5C 306.249,499.174 304.583,499.507 303,499.5C 302.583,498.244 301.75,497.577 300.5,497.5C 300.953,496.542 301.619,495.708 302.5,495C 300.772,495.353 299.106,495.519 297.5,495.5C 297.264,494.753 296.93,493.92 296.5,493C 295.231,493.109 294.231,492.942 293.5,492.5C 292.952,490.606 291.952,488.94 290.5,487.5C 291.665,486.416 292.998,485.583 294.5,485C 293.711,481.903 292.544,481.736 291,484.5C 290.607,481.666 291.774,479.666 294.5,478.5C 294.736,479.247 295.07,480.08 295.5,481C 296.167,481.667 296.833,481.667 297.5,481C 296.604,478.821 295.271,476.988 293.5,475.5C 295.07,475.306 296.57,475.306 298,475.5C 298.167,475.167 298.333,474.833 298.5,474.5C 297.624,473.749 296.624,473.249 295.5,473C 296.833,472.333 296.833,471.667 295.5,471C 296.5,470.667 297.5,470.333 298.5,470C 296.986,468.561 296.653,467.061 297.5,465.5C 298.167,466.5 298.833,467.5 299.5,468.5C 301.271,467.965 301.604,467.131 300.5,466C 303.925,464.402 304.258,462.402 301.5,460C 303.605,458.807 305.272,457.14 306.5,455C 304.859,453.871 303.859,452.371 303.5,450.5C 303.5,449.833 303.5,449.167 303.5,448.5 Z"/></g>
<g><path style="opacity:1" fill="#948c95" d="M 564.5,495.5 C 565.167,495.5 565.5,495.833 565.5,496.5C 565.238,497.978 565.571,499.311 566.5,500.5C 569.138,501.936 571.471,503.769 573.5,506C 573.165,507.867 572.665,510.034 572,512.5C 569.796,514.017 567.462,515.35 565,516.5C 562.491,516.676 559.991,516.676 557.5,516.5C 559.568,515.625 561.568,514.459 563.5,513C 562.359,512.259 562.359,511.425 563.5,510.5C 562.199,507.671 559.866,505.171 556.5,503C 551.233,501.807 546.733,499.307 543,495.5C 541.667,495.5 540.333,495.5 539,495.5C 536.976,493.642 534.809,491.975 532.5,490.5C 531.914,490.709 531.414,491.043 531,491.5C 522.962,486.643 514.962,481.643 507,476.5C 505.927,477.28 504.76,477.113 503.5,476C 503.833,475.667 504.167,475.333 504.5,475C 494.728,471.243 486.061,465.743 478.5,458.5C 479.247,458.264 480.08,457.93 481,457.5C 483.511,460.343 486.344,462.843 489.5,465C 490.854,466.294 492.188,466.46 493.5,465.5C 495.705,467.206 498.038,468.706 500.5,470C 501.035,472.109 502.035,472.609 503.5,471.5C 508.17,474.511 512.337,477.177 516,479.5C 516.333,478.833 516.667,478.167 517,477.5C 519.344,478.934 521.844,480.934 524.5,483.5C 525.167,483.167 525.833,482.833 526.5,482.5C 536.941,487.26 547.441,491.926 558,496.5C 558.333,496.167 558.667,495.833 559,495.5C 560.972,499.349 562.805,499.349 564.5,495.5 Z"/></g>
<g><path style="opacity:1" fill="#747384" d="M 428.5,505.5 C 404.209,503.503 379.876,502.503 355.5,502.5C 354.5,501.833 353.5,501.167 352.5,500.5C 363.198,500.622 374.198,500.456 385.5,500C 381.204,499.626 377.037,498.793 373,497.5C 371.127,498.089 369.46,497.422 368,495.5C 367.667,496.167 367.333,496.833 367,497.5C 366.71,495.956 366.044,494.623 365,493.5C 364.667,493.833 364.333,494.167 364,494.5C 363.691,493.234 363.191,492.067 362.5,491C 362.833,490.667 363.167,490.333 363.5,490C 362.033,488.902 361.199,487.402 361,485.5C 360.346,486.696 359.846,486.696 359.5,485.5C 360.5,484.833 361.5,484.167 362.5,483.5C 360.64,482.061 358.973,480.395 357.5,478.5C 357.977,477.522 358.643,476.689 359.5,476C 357.826,474.494 356.826,472.661 356.5,470.5C 355.5,470.5 354.5,470.5 353.5,470.5C 353.5,469.5 353.5,468.5 353.5,467.5C 354.708,468.234 356.041,468.567 357.5,468.5C 360.204,468.111 363.037,467.111 366,465.5C 367.673,467.917 369.506,467.917 371.5,465.5C 372.5,466.167 373.5,466.833 374.5,467.5C 375.427,465.054 377.094,464.221 379.5,465C 378.549,465.718 378.383,466.551 379,467.5C 379.915,466.672 380.581,465.672 381,464.5C 381.414,464.957 381.914,465.291 382.5,465.5C 383.833,464.5 385.167,463.5 386.5,462.5C 387.478,462.977 388.311,463.643 389,464.5C 389.725,462.842 390.892,462.342 392.5,463C 391.289,463.893 391.289,464.726 392.5,465.5C 394.747,462.173 396.247,462.173 397,465.5C 399.493,464.054 401.327,464.721 402.5,467.5C 404.416,466.752 406.416,466.752 408.5,467.5C 409.164,469.867 410.497,471.867 412.5,473.5C 414.102,472.45 414.935,473.117 415,475.5C 418.83,479.819 422.996,483.819 427.5,487.5C 428.386,488.325 428.719,489.325 428.5,490.5C 430.429,490.231 432.095,490.731 433.5,492C 433.167,492.333 432.833,492.667 432.5,493C 435.215,493.875 436.548,495.708 436.5,498.5C 437.675,498.281 438.675,498.614 439.5,499.5C 437.967,501.638 436.134,502.305 434,501.5C 427.247,502.314 420.414,502.814 413.5,503C 418.661,503.732 423.661,504.566 428.5,505.5 Z"/></g>
<g><path style="opacity:1" fill="#8b848d" d="M 466.5,464.5 C 467.794,465.29 468.961,466.29 470,467.5C 469.923,466.262 470.089,465.262 470.5,464.5C 473.312,466.477 475.978,468.644 478.5,471C 479.449,471.617 480.282,471.451 481,470.5C 484.925,472.751 488.592,475.417 492,478.5C 492.333,477.833 492.667,477.167 493,476.5C 496.785,480.628 501.119,483.961 506,486.5C 506.667,485.833 507.333,485.167 508,484.5C 510.109,487.648 512.942,489.981 516.5,491.5C 517.167,491.167 517.833,490.833 518.5,490.5C 520.673,492.17 522.84,493.837 525,495.5C 525.419,494.328 526.085,493.328 527,492.5C 529.096,493.715 528.929,494.549 526.5,495C 527.876,497.543 529.043,497.709 530,495.5C 532.043,497.208 533.71,499.208 535,501.5C 536.314,500.687 537.481,499.687 538.5,498.5C 543.75,500.857 548.583,503.857 553,507.5C 553.309,509.513 552.642,509.846 551,508.5C 549.796,509.471 549.296,510.471 549.5,511.5C 548.468,509.96 547.135,509.46 545.5,510C 546.308,510.308 546.975,510.808 547.5,511.5C 546.965,513.271 546.131,513.604 545,512.5C 541.165,514.148 537.165,515.481 533,516.5C 524,515.833 515,515.167 506,514.5C 505.667,514.833 505.333,515.167 505,515.5C 501.17,514.801 497.337,514.134 493.5,513.5C 499.057,512.239 504.724,512.239 510.5,513.5C 512.5,512.167 514.5,510.833 516.5,509.5C 516.833,509.833 517.167,510.167 517.5,510.5C 516.5,511.333 515.5,512.167 514.5,513C 516.995,513.157 519.328,513.324 521.5,513.5C 522.428,511.665 523.594,511.332 525,512.5C 526.848,510.982 528.348,509.149 529.5,507C 528.333,506.5 527.5,505.667 527,504.5C 526.667,505.5 526.333,506.5 526,507.5C 524.357,505.128 522.857,502.794 521.5,500.5C 520.459,502.991 519.626,502.991 519,500.5C 518.667,501.167 518.333,501.833 518,502.5C 514.964,498.723 511.631,496.057 508,494.5C 507.667,494.833 507.333,495.167 507,495.5C 505.601,494.773 504.101,494.273 502.5,494C 503.167,493.667 503.833,493.333 504.5,493C 498.392,490.188 492.392,487.188 486.5,484C 485.638,481.266 484.805,481.099 484,483.5C 479.255,480.298 474.922,476.631 471,472.5C 470.23,473.598 469.397,473.598 468.5,472.5C 466.504,472.349 464.838,471.682 463.5,470.5C 469.301,470.506 469.634,469.006 464.5,466C 465.044,465.283 465.711,464.783 466.5,464.5 Z"/></g>
<g><path style="opacity:1" fill="#84848d" d="M 468.5,472.5 C 469.397,473.598 470.23,473.598 471,472.5C 474.922,476.631 479.255,480.298 484,483.5C 484.805,481.099 485.638,481.266 486.5,484C 492.392,487.188 498.392,490.188 504.5,493C 503.833,493.333 503.167,493.667 502.5,494C 504.101,494.273 505.601,494.773 507,495.5C 507.333,495.167 507.667,494.833 508,494.5C 511.631,496.057 514.964,498.723 518,502.5C 518.333,501.833 518.667,501.167 519,500.5C 519.626,502.991 520.459,502.991 521.5,500.5C 522.857,502.794 524.357,505.128 526,507.5C 526.333,506.5 526.667,505.5 527,504.5C 527.5,505.667 528.333,506.5 529.5,507C 528.348,509.149 526.848,510.982 525,512.5C 523.594,511.332 522.428,511.665 521.5,513.5C 519.328,513.324 516.995,513.157 514.5,513C 515.5,512.167 516.5,511.333 517.5,510.5C 517.167,510.167 516.833,509.833 516.5,509.5C 514.5,510.833 512.5,512.167 510.5,513.5C 504.724,512.239 499.057,512.239 493.5,513.5C 482.323,512.684 471.157,511.684 460,510.5C 458.293,510.508 456.793,510.842 455.5,511.5C 451.024,510.357 446.524,509.357 442,508.5C 440.769,509.108 439.436,509.441 438,509.5C 428.133,508.063 418.3,507.063 408.5,506.5C 405.183,507.805 402.016,507.472 399,505.5C 366.585,504.426 334.085,504.426 301.5,505.5C 299.369,504.686 297.036,504.186 294.5,504C 314.592,502.722 334.926,502.222 355.5,502.5C 379.876,502.503 404.209,503.503 428.5,505.5C 441.113,507.101 453.78,508.101 466.5,508.5C 468.218,509.224 470.052,509.891 472,510.5C 478.141,509.452 484.641,509.452 491.5,510.5C 494.429,507.554 494.095,506.387 490.5,507C 490.833,506.667 491.167,506.333 491.5,506C 488.087,504.923 485.587,502.756 484,499.5C 483.667,499.833 483.333,500.167 483,500.5C 480.795,497.96 478.295,495.793 475.5,494C 476.167,493.333 476.833,492.667 477.5,492C 475.944,491.28 474.944,490.113 474.5,488.5C 473.676,485.685 472.009,483.518 469.5,482C 471.044,481.71 472.377,481.044 473.5,480C 470.953,479.448 468.953,478.114 467.5,476C 468.167,475.667 468.833,475.333 469.5,475C 468.748,474.329 468.414,473.496 468.5,472.5 Z"/></g>
<g><path style="opacity:1" fill="#b4acb6" d="M 46.5,496.5 C 47.2389,496.369 47.9056,496.536 48.5,497C 44.5316,500.258 44.6983,502.424 49,503.5C 51.1802,506.333 53.8468,507.333 57,506.5C 60.0558,507.077 63.0558,507.743 66,508.5C 74.7055,508.218 83.5389,508.218 92.5,508.5C 96.8464,508.561 100.846,509.727 104.5,512C 99.8927,514.471 95.2261,516.637 90.5,518.5C 81.4163,519.661 72.4163,520.328 63.5,520.5C 65.2726,519.108 67.2726,517.941 69.5,517C 60.0899,515.144 50.7566,513.144 41.5,511C 39.8333,510.167 38.1667,509.333 36.5,508.5C 35.9348,506.456 34.9348,504.79 33.5,503.5C 37.3472,500.407 41.6805,498.074 46.5,496.5 Z"/></g>
<g><path style="opacity:1" fill="#767d99" d="M 300.5,497.5 C 301.75,497.577 302.583,498.244 303,499.5C 304.583,499.507 306.249,499.174 308,498.5C 313.333,499.167 318.667,499.833 324,500.5C 333.121,499.712 342.621,499.712 352.5,500.5C 353.5,501.167 354.5,501.833 355.5,502.5C 334.926,502.222 314.592,502.722 294.5,504C 297.036,504.186 299.369,504.686 301.5,505.5C 297.563,505.793 293.73,505.46 290,504.5C 289.25,505.126 288.416,505.626 287.5,506C 272.575,507.214 257.908,508.048 243.5,508.5C 242.209,508.737 241.209,508.404 240.5,507.5C 249.358,506.871 258.358,506.037 267.5,505C 269.34,504.988 271.173,504.154 273,502.5C 274.183,503.731 275.349,503.731 276.5,502.5C 275.23,501.712 274.23,500.712 273.5,499.5C 277.072,499.062 280.572,498.396 284,497.5C 289.243,498.658 294.743,498.658 300.5,497.5 Z"/></g>
<g><path style="opacity:1" fill="#9b9393" d="M 565.5,496.5 C 573.858,499.672 581.191,504.338 587.5,510.5C 586.874,513.315 585.54,515.815 583.5,518C 566.077,522.187 548.41,523.52 530.5,522C 528.899,521.727 527.399,521.227 526,520.5C 525.667,520.833 525.333,521.167 525,521.5C 523.052,520.891 521.218,520.224 519.5,519.5C 527.775,520.111 536.109,519.444 544.5,517.5C 546.135,517.878 547.635,518.544 549,519.5C 551.024,517.984 553.191,516.651 555.5,515.5C 556.183,515.863 556.85,516.196 557.5,516.5C 559.991,516.676 562.491,516.676 565,516.5C 567.462,515.35 569.796,514.017 572,512.5C 572.665,510.034 573.165,507.867 573.5,506C 571.471,503.769 569.138,501.936 566.5,500.5C 565.571,499.311 565.238,497.978 565.5,496.5 Z"/></g>
<g><path style="opacity:1" fill="#9999a0" d="M 301.5,505.5 C 334.085,504.426 366.585,504.426 399,505.5C 402.016,507.472 405.183,507.805 408.5,506.5C 418.3,507.063 428.133,508.063 438,509.5C 439.436,509.441 440.769,509.108 442,508.5C 446.524,509.357 451.024,510.357 455.5,511.5C 468.705,512.651 482.039,514.317 495.5,516.5C 496.446,516.013 497.446,515.68 498.5,515.5C 504.3,515.853 509.967,516.853 515.5,518.5C 516.554,518.32 517.554,517.987 518.5,517.5C 519.298,517.957 519.631,518.624 519.5,519.5C 510.499,518.5 501.832,518.5 493.5,519.5C 489.609,518.778 485.609,517.944 481.5,517C 460.124,515.965 438.791,513.798 417.5,510.5C 415.444,509.784 413.277,509.117 411,508.5C 410.586,508.957 410.086,509.291 409.5,509.5C 396.307,508.449 383.14,507.449 370,506.5C 349.526,506.521 328.859,506.521 308,506.5C 292.402,507.529 277.402,508.529 263,509.5C 261.187,508.391 260.354,509.058 260.5,511.5C 253.825,511.666 247.158,511.5 240.5,511C 240.167,510.667 239.833,510.333 239.5,510C 241.058,509.79 242.391,509.29 243.5,508.5C 257.908,508.048 272.575,507.214 287.5,506C 288.416,505.626 289.25,505.126 290,504.5C 293.73,505.46 297.563,505.793 301.5,505.5 Z"/></g>
<g><path style="opacity:1" fill="#babac2" d="M 33.5,503.5 C 34.9348,504.79 35.9348,506.456 36.5,508.5C 38.1667,509.333 39.8333,510.167 41.5,511C 50.7566,513.144 60.0899,515.144 69.5,517C 67.2726,517.941 65.2726,519.108 63.5,520.5C 55.1952,521.332 46.8619,521.665 38.5,521.5C 16.483,520.966 14.8163,514.966 33.5,503.5 Z"/></g>
<g><path style="opacity:1" fill="#abafb3" d="M 417.5,510.5 C 413.901,511.344 410.234,511.677 406.5,511.5C 387.299,510.133 368.132,509.133 349,508.5C 346.111,508.88 343.277,509.214 340.5,509.5C 326.339,508.339 312.006,508.173 297.5,509C 294.044,509.18 290.711,509.847 287.5,511C 295.677,511.171 303.677,511.671 311.5,512.5C 294.499,512.192 277.499,511.859 260.5,511.5C 260.354,509.058 261.187,508.391 263,509.5C 277.402,508.529 292.402,507.529 308,506.5C 328.859,506.521 349.526,506.521 370,506.5C 383.14,507.449 396.307,508.449 409.5,509.5C 410.086,509.291 410.586,508.957 411,508.5C 413.277,509.117 415.444,509.784 417.5,510.5 Z"/></g>
<g><path style="opacity:1" fill="#c4c7ca" d="M 340.5,509.5 C 338.649,509.649 336.816,509.649 335,509.5C 332.904,510.715 333.071,511.549 335.5,512C 341.016,512.173 346.349,512.673 351.5,513.5C 338.161,513.34 324.828,513.007 311.5,512.5C 303.677,511.671 295.677,511.171 287.5,511C 290.711,509.847 294.044,509.18 297.5,509C 312.006,508.173 326.339,508.339 340.5,509.5 Z"/></g>
<g><path style="opacity:1" fill="#746f8d" d="M 239.5,507.5 C 230.891,508.408 222.558,510.075 214.5,512.5C 185.473,513.323 156.473,514.656 127.5,516.5C 129.51,515.983 130.843,515.316 131.5,514.5C 137.274,513.054 143.274,512.388 149.5,512.5C 179.479,510.502 209.479,508.835 239.5,507.5 Z"/></g>
<g><path style="opacity:1" fill="#d5d9d9" d="M 406.5,511.5 C 407.531,512.249 408.698,512.915 410,513.5C 415.305,513.492 420.638,513.492 426,513.5C 428.385,515.301 430.885,515.634 433.5,514.5C 453.336,517.018 473.336,519.352 493.5,521.5C 496.575,522.047 499.575,523.047 502.5,524.5C 503.446,524.013 504.446,523.68 505.5,523.5C 508.676,524.728 511.842,525.728 515,526.5C 516.073,525.72 517.24,525.887 518.5,527C 514.113,527.706 509.78,527.54 505.5,526.5C 487.511,524.686 469.511,523.02 451.5,521.5C 418.42,517.559 385.086,514.893 351.5,513.5C 346.349,512.673 341.016,512.173 335.5,512C 333.071,511.549 332.904,510.715 335,509.5C 336.816,509.649 338.649,509.649 340.5,509.5C 343.277,509.214 346.111,508.88 349,508.5C 368.132,509.133 387.299,510.133 406.5,511.5 Z"/></g>
<g><path style="opacity:1" fill="#5c575e" d="M 214.5,512.5 C 252.335,512.844 290.002,513.51 327.5,514.5C 250.399,513.096 173.399,515.096 96.5,520.5C 98.1667,519.833 99.8333,519.167 101.5,518.5C 110.125,517.339 118.792,516.672 127.5,516.5C 156.473,514.656 185.473,513.323 214.5,512.5 Z"/></g>
<g><path style="opacity:1" fill="#8a8c91" d="M 239.5,507.5 C 239.833,507.5 240.167,507.5 240.5,507.5C 241.209,508.404 242.209,508.737 243.5,508.5C 242.391,509.29 241.058,509.79 239.5,510C 239.833,510.333 240.167,510.667 240.5,511C 247.158,511.5 253.825,511.666 260.5,511.5C 277.499,511.859 294.499,512.192 311.5,512.5C 324.828,513.007 338.161,513.34 351.5,513.5C 385.086,514.893 418.42,517.559 451.5,521.5C 410.224,518.229 368.891,515.896 327.5,514.5C 290.002,513.51 252.335,512.844 214.5,512.5C 222.558,510.075 230.891,508.408 239.5,507.5 Z"/></g>
<g><path style="opacity:1" fill="#bec0c2" d="M 417.5,510.5 C 438.791,513.798 460.124,515.965 481.5,517C 485.609,517.944 489.609,518.778 493.5,519.5C 495.167,520.167 496.833,520.833 498.5,521.5C 496.833,521.5 495.167,521.5 493.5,521.5C 473.336,519.352 453.336,517.018 433.5,514.5C 430.885,515.634 428.385,515.301 426,513.5C 420.638,513.492 415.305,513.492 410,513.5C 408.698,512.915 407.531,512.249 406.5,511.5C 410.234,511.677 413.901,511.344 417.5,510.5 Z"/></g>
<g><path style="opacity:1" fill="#aba9a0" d="M 587.5,510.5 C 590.652,511.779 592.652,514.112 593.5,517.5C 591.99,518.836 590.323,520.003 588.5,521C 583.187,522.092 577.853,523.092 572.5,524C 553.783,524.922 535.117,524.422 516.5,522.5C 510.491,522.299 504.491,521.966 498.5,521.5C 496.833,520.833 495.167,520.167 493.5,519.5C 501.832,518.5 510.499,518.5 519.5,519.5C 521.218,520.224 523.052,520.891 525,521.5C 525.333,521.167 525.667,520.833 526,520.5C 527.399,521.227 528.899,521.727 530.5,522C 548.41,523.52 566.077,522.187 583.5,518C 585.54,515.815 586.874,513.315 587.5,510.5 Z"/></g>
<g><path style="opacity:1" fill="#978c85" d="M 90.5,518.5 C 94.1667,518.5 97.8333,518.5 101.5,518.5C 99.8333,519.167 98.1667,519.833 96.5,520.5C 77.0215,522.115 57.6881,522.449 38.5,521.5C 46.8619,521.665 55.1952,521.332 63.5,520.5C 72.4163,520.328 81.4163,519.661 90.5,518.5 Z"/></g>
<g><path style="opacity:1" fill="#b5b2a7" d="M 593.5,517.5 C 594.754,519.357 594.754,521.357 593.5,523.5C 590.995,525.253 588.329,526.753 585.5,528C 560.065,532.358 534.731,532.525 509.5,528.5C 515.229,528.788 520.896,528.454 526.5,527.5C 527.5,528 528.5,528.5 529.5,529C 540.833,529.667 552.167,529.667 563.5,529C 553.091,527.895 542.591,526.728 532,525.5C 531,525.833 530,526.167 529,526.5C 525.197,525.539 521.364,524.706 517.5,524C 516.944,523.617 516.611,523.117 516.5,522.5C 535.117,524.422 553.783,524.922 572.5,524C 577.853,523.092 583.187,522.092 588.5,521C 590.323,520.003 591.99,518.836 593.5,517.5 Z"/></g>
<g><path style="opacity:1" fill="#9da0a3" d="M 451.5,521.5 C 469.511,523.02 487.511,524.686 505.5,526.5C 505.833,527.167 506.167,527.833 506.5,528.5C 487.943,526.811 469.61,524.477 451.5,521.5 Z"/></g>
<g><path style="opacity:1" fill="#d0ccc7" d="M 493.5,521.5 C 495.167,521.5 496.833,521.5 498.5,521.5C 504.491,521.966 510.491,522.299 516.5,522.5C 516.611,523.117 516.944,523.617 517.5,524C 521.364,524.706 525.197,525.539 529,526.5C 530,526.167 531,525.833 532,525.5C 542.591,526.728 553.091,527.895 563.5,529C 552.167,529.667 540.833,529.667 529.5,529C 528.5,528.5 527.5,528 526.5,527.5C 520.896,528.454 515.229,528.788 509.5,528.5C 508.5,528.5 507.5,528.5 506.5,528.5C 506.167,527.833 505.833,527.167 505.5,526.5C 509.78,527.54 514.113,527.706 518.5,527C 517.24,525.887 516.073,525.72 515,526.5C 511.842,525.728 508.676,524.728 505.5,523.5C 504.446,523.68 503.446,524.013 502.5,524.5C 499.575,523.047 496.575,522.047 493.5,521.5 Z"/></g>
</svg>
