<?xml version="1.0" encoding="UTF-8"?>
<!DOCTYPE svg PUBLIC "-//W3C//DTD SVG 1.1//EN" "http://www.w3.org/Graphics/SVG/1.1/DTD/svg11.dtd">
<!-- Creator: CorelDRAW -->
<svg xmlns="http://www.w3.org/2000/svg" xml:space="preserve" width="2048px" height="2048px" style="shape-rendering:geometricPrecision; text-rendering:geometricPrecision; image-rendering:optimizeQuality; fill-rule:evenodd; clip-rule:evenodd"
viewBox="0 0 2048 2048"
 xmlns:xlink="http://www.w3.org/1999/xlink">
 <defs>
  <style type="text/css">
   <![CDATA[
    .fil1 {fill:none}
    .fil0 {fill:#424242}
   ]]>
  </style>
 </defs>
 <g id="Layer_x0020_1">
  <metadata id="CorelCorpID_0Corel-Layer"/>
  <path class="fil0" d="M512 255.999l1024 0 32.0008 0 0 32.0008 0 1472 0 32.0008 -32.0008 0 -1024 0 -32.0008 0 0 -32.0008 0 -1472 0 -32.0008 32.0008 0zm333.351 253.811l0 -102.768 -36.6945 0 0 -20.9398 98.3032 0 0 20.9398 -36.6083 0 0 102.768 -25.0004 0zm77.739 0l0 -123.708 91.7079 0 0 20.9398 -66.7359 0 0 27.4193 62.0989 0 0 20.8252 -62.0989 0 0 33.6697 69.0981 0 0 20.8536 -94.0702 0zm108.932 -40.2378l24.3095 -2.39055c1.43976,8.18032 4.4067,14.1709 8.89961,18.0024 4.46457,3.80197 10.4847,5.73189 18.0886,5.73189 8.03623,0 14.113,-1.69961 18.1748,-5.12717 4.09016,-3.39922 6.13465,-7.37363 6.13465,-11.9244 0,-2.93858 -0.864568,-5.41536 -2.59252,-7.45985 -1.69961,-2.07402 -4.69489,-3.85985 -8.98583,-5.35748 -2.90906,-1.03701 -9.59174,-2.82284 -19.989,-5.41536 -13.3937,-3.31181 -22.7835,-7.40197 -28.1693,-12.241 -7.60394,-6.79725 -11.4059,-15.0921 -11.4059,-24.8858 0,-6.30709 1.78583,-12.1831 5.35748,-17.6847 3.57048,-5.47205 8.72717,-9.64843 15.4382,-12.5291 6.73938,-2.85118 14.8335,-4.29095 24.3378,-4.29095 15.5539,0 27.2185,3.39803 35.0823,10.1953 7.83426,6.82678 11.9528,15.9 12.3555,27.2764l-24.9721 1.09488c-1.06536,-6.36615 -3.36969,-10.9453 -6.88347,-13.7102 -3.51378,-2.79449 -8.78505,-4.17638 -15.8126,-4.17638 -7.25788,0 -12.9614,1.46929 -17.0516,4.46457 -2.64921,1.9004 -3.97441,4.46457 -3.97441,7.66182 0,2.9374 1.23898,5.4437 3.71575,7.51654 3.13937,2.6504 10.8012,5.41536 22.9559,8.26654 12.1547,2.88071 21.1406,5.84764 26.9587,8.90079 5.81811,3.0815 10.3689,7.25788 13.6819,12.5858 3.28347,5.32914 4.9252,11.8961 4.9252,19.702 0,7.08544 -1.95827,13.7386 -5.90434,19.9028 -3.94607,6.19252 -9.50552,10.8012 -16.7055,13.7965 -7.20119,3.02362 -16.187,4.52126 -26.9315,4.52126 -15.639,0 -27.6496,-3.6 -36.0319,-10.8295 -8.38111,-7.22953 -13.3937,-17.7709 -15.0059,-31.5969zm149.428 40.2378l0 -102.768 -36.6945 0 0 -20.9398 98.3032 0 0 20.9398 -36.6083 0 0 102.768 -25.0004 0zm-557.45 866.189l160.001 0 32.0008 0 0 32.0008 0 160.001 0 32.0008 -32.0008 0 -160.001 0 -32.0008 0 0 -32.0008 0 -160.001 0 -32.0008 32.0008 0zm255.999 -608.001l544.001 0 0 64.0016 -544.001 0 0 -64.0016zm0 -159.999l544.001 0 0 64.0016 -544.001 0 0 -64.0016zm-255.999 0l160.001 0 32.0008 0 0 32.0008 0 160.001 0 32.0008 -32.0008 0 -160.001 0 -32.0008 0 0 -32.0008 0 -160.001 0 -32.0008 32.0008 0zm128 64.0016l-95.9989 0 0 95.9989 95.9989 0 0 -95.9989zm128 479.998l544.001 0 0 64.0016 -544.001 0 0 -64.0016zm0 -159.999l544.001 0 0 64.0016 -544.001 0 0 -64.0016zm-255.999 0l160.001 0 32.0008 0 0 32.0008 0 160.001 0 32.0008 -32.0008 0 -160.001 0 -32.0008 0 0 -32.0008 0 -160.001 0 -32.0008 32.0008 0zm128 64.0016l-95.9989 0 0 95.9989 95.9989 0 0 -95.9989zm128 479.998l544.001 0 0 64.0016 -544.001 0 0 -64.0016zm0 -159.999l544.001 0 0 64.0016 -544.001 0 0 -64.0016zm-128 64.0016l-95.9989 0 0 95.9989 95.9989 0 0 -95.9989z"/>
 </g>
 <rect class="fil1" width="2048" height="2048"/>
</svg>
